<svg width="48" height="48" viewBox="0 0 48 48" fill="none" xmlns="http://www.w3.org/2000/svg">
<g clip-path="url(#clip0_669_12987)">
<path d="M38.0467 30.1572C34.6099 30.1572 31.7084 32.442 30.7737 35.5748C30.7734 35.5743 30.7734 35.5737 30.7734 35.5731C30.7731 35.5737 30.7731 35.5743 30.7728 35.5748C29.8385 32.442 26.9369 30.1572 23.5002 30.1572C20.1252 30.1572 17.2707 32.363 16.2841 35.4094C16.269 35.4643 16.2574 35.5206 16.2411 35.5751C16.2391 35.5685 16.2362 35.5618 16.2341 35.5551C16.2321 35.5618 16.2292 35.5685 16.2272 35.5751C16.2109 35.5206 16.199 35.4645 16.1842 35.4094C15.1976 32.363 12.3431 30.1572 8.96814 30.1572C8.07179 30.1572 7.2123 30.314 6.41406 30.5993C9.19832 37.293 15.7987 42 23.5004 42C31.2039 42 37.8052 37.2904 40.5886 30.5947C39.7935 30.3122 38.9384 30.1572 38.0467 30.1572Z" fill="#FCBB02"/>
<path d="M8.96798 25.8122C12.3958 25.8122 15.2918 28.085 16.234 31.2057C17.1762 28.085 20.0722 25.8122 23.5 25.8122C26.9374 25.8122 29.8392 28.0977 30.7733 31.2312C31.7074 28.0975 34.6095 25.8122 38.0465 25.8122C39.3748 25.8122 40.6227 26.1541 41.7089 26.7538C41.8964 25.6969 42 24.611 42 23.5001C42 13.2829 33.7172 5 23.5 5C13.2828 5 5 13.2829 5 23.5001C5 24.6136 5.10392 25.7021 5.2923 26.7613C6.38168 26.1573 7.63419 25.8122 8.96798 25.8122Z" fill="#008EFC"/>
<path d="M33.7196 10.6029C34.1761 10.6488 34.3204 11.2438 33.9367 11.4955L18.4653 21.6463C15.6927 23.4654 12.878 23.682 10.8112 23.5005C10.3837 23.4631 10.247 22.9032 10.6057 22.6678L27.1682 11.8012C29.277 10.4177 32.1004 10.4407 33.7196 10.6029Z" fill="white"/>
<path d="M24.38 14.2049L15.8577 13.4424C15.3904 13.4006 14.9228 13.5178 14.5306 13.7753L13.854 14.2191L19.8031 17.208L24.38 14.2049Z" fill="white"/>
<path d="M25.3228 16.4292L27.1387 19.1969C27.489 19.731 27.5747 20.396 27.3715 21.0016L27.2853 21.2584L21.6064 18.006L25.3228 16.4292Z" fill="white"/>
<path d="M15.4672 20.0531L12.3207 18.6714L11.229 19.3878L13.0072 22.0977L15.4672 20.0531Z" fill="white"/>
</g>
<defs>
<clipPath id="clip0_669_12987">
<rect width="37" height="37" fill="white" transform="translate(5 5)"/>
</clipPath>
</defs>
</svg>
