<svg width="274" height="212" viewBox="0 0 274 212" fill="none" xmlns="http://www.w3.org/2000/svg">
<path opacity="0.6" d="M29.7678 36.3981C30.5447 35.4096 31.7074 34.8412 32.8327 34.3444C33.2015 34.1565 33.6946 34.3266 33.8662 34.7038C34.1104 35.1832 34.3366 35.6724 34.5616 36.161C34.7496 36.5225 34.5932 37.0089 34.2287 37.1895C33.6143 37.4985 32.9688 37.7602 32.4246 38.1895C33.1648 38.8463 34.0435 39.3931 34.556 40.2651C35.1846 41.3058 34.9445 42.7747 34.0333 43.5725C33.2749 44.2328 32.2645 44.454 31.3315 44.7492C32.0844 45.3686 32.9288 45.9606 33.3644 46.8644C33.8424 47.8537 33.5495 49.0671 32.8589 49.8812C32.0793 50.8055 30.9622 51.3484 29.877 51.8293C29.5147 52.0145 29.031 51.8604 28.8485 51.4964C28.6016 51.0106 28.3687 50.5158 28.1426 50.0193C27.9538 49.6549 28.1131 49.1637 28.4817 48.983C29.0939 48.6736 29.7414 48.4154 30.2812 47.9812C29.5367 47.3317 28.6659 46.7797 28.1513 45.9114C27.5173 44.8659 27.7629 43.3904 28.6837 42.5941C29.4411 41.9413 30.4449 41.7188 31.3739 41.4278C30.6437 40.8239 29.8302 40.2514 29.3789 39.393C28.8739 38.4336 29.1111 37.2237 29.7678 36.3981Z" fill="#43D685"/>
<path opacity="0.6" d="M240.909 109.478C241.864 108.263 243.293 107.564 244.677 106.953C245.13 106.722 245.737 106.931 245.948 107.395C246.248 107.984 246.526 108.586 246.803 109.187C247.034 109.631 246.842 110.229 246.393 110.451C245.638 110.831 244.844 111.153 244.175 111.681C245.085 112.488 246.166 113.16 246.796 114.233C247.569 115.512 247.273 117.318 246.153 118.299C245.221 119.111 243.978 119.383 242.831 119.746C243.757 120.507 244.795 121.235 245.331 122.346C245.918 123.563 245.558 125.054 244.709 126.055C243.751 127.192 242.377 127.859 241.043 128.451C240.598 128.678 240.003 128.489 239.778 128.041C239.475 127.444 239.189 126.836 238.911 126.225C238.678 125.777 238.874 125.173 239.328 124.951C240.08 124.571 240.876 124.253 241.54 123.719C240.625 122.921 239.554 122.242 238.921 121.175C238.142 119.889 238.444 118.075 239.576 117.096C240.507 116.293 241.741 116.02 242.883 115.662C241.986 114.92 240.985 114.216 240.431 113.16C239.81 111.981 240.101 110.493 240.909 109.478Z" fill="#43D685"/>
<path opacity="0.6" d="M48.3216 18.7945C48.5964 18.5709 48.9184 18.7979 49.1663 18.9438C49.5146 19.1731 49.917 19.3272 50.2287 19.6084C50.417 19.836 50.2795 20.1269 50.1437 20.3392C49.6656 21.1398 49.2172 21.9593 48.7342 22.7571C48.5779 23.0469 48.1948 23.0307 47.9616 22.851C47.5638 22.6021 47.133 22.4031 46.7549 22.1241C46.4554 21.8499 46.7181 21.469 46.8809 21.2033C47.374 20.4089 47.7799 19.5534 48.3216 18.7945Z" fill="#43D685"/>
<path opacity="0.6" d="M258.989 103.575C259.327 103.3 259.723 103.579 260.028 103.758C260.456 104.04 260.95 104.23 261.334 104.575C261.565 104.855 261.396 105.213 261.229 105.474C260.641 106.458 260.09 107.466 259.496 108.447C259.304 108.803 258.833 108.783 258.546 108.562C258.057 108.256 257.528 108.011 257.063 107.668C256.694 107.331 257.018 106.863 257.218 106.536C257.824 105.56 258.323 104.508 258.989 103.575Z" fill="#43D685"/>
<path opacity="0.6" d="M8.25347 37.9258C8.70174 37.6694 9.246 37.6261 9.7356 37.4667C10.0082 37.3466 10.3718 37.475 10.4312 37.7865C10.6977 38.7508 10.9561 39.7194 11.2053 40.6884C11.2893 40.9418 11.117 41.2296 10.8578 41.2802C10.4066 41.4098 9.95424 41.5315 9.49884 41.6417C9.25145 41.7252 8.96304 41.5623 8.91005 41.3057C8.64869 40.376 8.41109 39.439 8.15812 38.506C8.09283 38.3114 8.0891 38.0736 8.25347 37.9258Z" fill="#43D685"/>
<path opacity="0.6" d="M230.312 115.054C230.863 114.739 231.532 114.686 232.134 114.49C232.469 114.342 232.916 114.5 232.989 114.883C233.317 116.068 233.634 117.259 233.941 118.451C234.044 118.762 233.832 119.116 233.514 119.178C232.959 119.338 232.403 119.487 231.843 119.623C231.539 119.725 231.184 119.525 231.119 119.21C230.798 118.067 230.505 116.915 230.194 115.767C230.114 115.528 230.11 115.236 230.312 115.054Z" fill="#43D685"/>
<path opacity="0.6" d="M48.0314 37.49C48.358 37.3678 48.6846 37.2416 49.0221 37.1526C49.268 37.0675 49.5546 37.235 49.6152 37.4854C49.7537 37.9661 49.8906 38.4484 49.9971 38.9366C50.0496 39.1758 49.8597 39.4015 49.6328 39.4537C46.6359 40.4157 44.1025 42.4593 42.0889 44.8347C40.4508 46.7774 39.1087 48.9809 38.2055 51.3595C38.1361 51.5973 37.9055 51.8132 37.6431 51.736C37.1601 51.5921 36.6845 51.4184 36.2091 51.2529C35.9531 51.1729 35.8199 50.8626 35.9346 50.6211C36.8988 48.0388 38.3297 45.6398 40.0693 43.5064C42.2031 40.9219 44.8822 38.7067 48.0314 37.49Z" fill="#43D685"/>
<path opacity="0.6" d="M263.363 110.823C263.765 110.673 264.167 110.518 264.582 110.408C264.884 110.304 265.236 110.51 265.311 110.817C265.481 111.409 265.649 112.001 265.78 112.602C265.845 112.896 265.611 113.173 265.332 113.238C261.648 114.42 258.533 116.933 256.057 119.853C254.043 122.242 252.393 124.951 251.283 127.876C251.197 128.168 250.914 128.433 250.591 128.338C249.997 128.161 249.413 127.948 248.828 127.744C248.514 127.646 248.35 127.265 248.491 126.968C249.676 123.793 251.436 120.843 253.574 118.22C256.198 115.043 259.492 112.319 263.363 110.823Z" fill="#43D685"/>
<path opacity="0.6" d="M50.617 46.7457C50.5672 46.3545 50.8455 45.9509 51.2389 45.8861C51.6756 45.818 52.1192 45.8139 52.5587 45.7677C52.8764 45.7395 53.2483 45.6908 53.5051 45.928C53.8161 46.1754 53.7917 46.6049 53.8294 46.9623C53.9219 48.1388 53.9395 49.397 53.3708 50.4678C52.93 51.2925 52.0825 51.9353 51.1269 51.9721C50.1547 52.0122 49.2521 51.588 48.3628 51.256C48.5776 52.2311 48.896 53.2433 48.6736 54.2465C48.4117 55.4063 47.2755 56.3094 46.0837 56.2825C45.073 56.2711 44.1587 55.7914 43.2249 55.4662C43.1193 56.1315 43.206 56.8041 43.2513 57.4714C43.294 57.8593 43.0137 58.2593 42.6215 58.3207C42.1876 58.3881 41.7472 58.3923 41.3115 58.4375C40.9935 58.4647 40.6228 58.5142 40.3653 58.2782C40.0559 58.0365 40.0768 57.6131 40.0391 57.2598C39.9446 56.0756 39.9228 54.8093 40.4981 53.7326C40.9377 52.9072 41.7871 52.2638 42.7435 52.23C43.7136 52.1935 44.6175 52.6112 45.505 52.9477C45.2885 51.9742 44.9694 50.9631 45.1899 49.9605C45.4573 48.7868 46.6144 47.873 47.8241 47.9168C48.8221 47.9387 49.7198 48.4218 50.6476 48.7322C50.74 48.0715 50.6664 47.4056 50.617 46.7457Z" fill="#43D685"/>
<path d="M149.27 8.15058C149.561 7.63276 150.259 7.3939 150.793 7.66794C151.382 7.9768 151.922 8.36923 152.495 8.70705C152.905 8.95765 153.398 9.23184 153.496 9.74877C153.651 10.3266 153.237 10.8243 152.962 11.2904C152.02 12.7963 150.914 14.3339 149.267 15.1197C147.995 15.7224 146.394 15.7408 145.205 14.9291C143.993 14.1067 143.282 12.7851 142.503 11.5869C141.89 12.9587 141.368 14.4683 140.2 15.4825C138.845 16.6508 136.661 16.7253 135.244 15.6251C134.031 14.7059 133.355 13.3067 132.517 12.0767C131.793 12.7868 131.296 13.6782 130.753 14.5258C130.457 15.0333 129.759 15.266 129.23 14.9889C128.645 14.6817 128.108 14.2923 127.541 13.9567C127.132 13.7047 126.639 13.4325 126.539 12.9164C126.381 12.3469 126.786 11.8534 127.057 11.3923C128.003 9.87531 129.111 8.32405 130.772 7.53708C132.043 6.93252 133.647 6.91517 134.834 7.73104C136.04 8.55602 136.759 9.8709 137.531 11.073C138.141 9.7015 138.661 8.19272 139.826 7.17744C141.201 5.99738 143.419 5.92855 144.843 7.06515C146.031 7.98581 146.684 9.37433 147.528 10.5809C148.232 9.86447 148.739 8.99312 149.27 8.15058Z" fill="#43D685"/>
<path opacity="0.8" d="M213.256 191.489C213.49 190.683 214.374 190.129 215.198 190.335C216.108 190.571 216.978 190.938 217.876 191.219C218.521 191.432 219.288 191.651 219.59 192.331C219.988 193.078 219.578 193.896 219.349 194.626C218.536 197.003 217.507 199.476 215.492 201.087C213.934 202.326 211.735 202.866 209.837 202.13C207.904 201.387 206.499 199.796 205.042 198.396C204.638 200.483 204.405 202.729 203.123 204.501C201.631 206.546 198.648 207.35 196.343 206.291C194.378 205.415 192.997 203.705 191.447 202.281C190.679 203.491 190.28 204.879 189.805 206.22C189.561 207.014 188.675 207.559 187.857 207.348C186.952 207.113 186.088 206.749 185.199 206.469C184.555 206.253 183.789 206.037 183.485 205.358C183.085 204.625 183.483 203.815 183.708 203.093C184.524 200.7 185.551 198.208 187.585 196.59C189.141 195.349 191.344 194.81 193.241 195.552C195.167 196.3 196.58 197.879 198.03 199.287C198.429 197.202 198.66 194.957 199.938 193.185C201.452 191.118 204.484 190.31 206.811 191.417C208.742 192.303 210.088 194.006 211.638 195.396C212.377 194.183 212.795 192.82 213.256 191.489Z" fill="#43D685"/>
<path opacity="0.6" d="M74.8489 189.881C74.7789 189.114 74.0778 188.461 73.3001 188.503C72.4382 188.558 71.5905 188.737 70.7326 188.834C70.1147 188.915 69.3847 188.978 68.995 189.539C68.5062 190.142 68.7339 190.951 68.8127 191.649C69.1325 193.932 69.6297 196.339 71.166 198.142C72.3547 199.529 74.2424 200.398 76.0807 200.065C77.9521 199.731 79.4948 198.542 81.0511 197.533C81.0527 199.484 80.8723 201.549 81.7196 203.368C82.7083 205.47 85.2566 206.714 87.5186 206.16C89.4416 205.712 90.9833 204.411 92.6273 203.397C93.1093 204.621 93.2275 205.941 93.4227 207.233C93.5048 207.991 94.2082 208.635 94.9823 208.587C95.8383 208.533 96.6801 208.355 97.5302 208.257C98.1482 208.175 98.8762 208.113 99.2678 207.554C99.7561 206.963 99.5377 206.164 99.4604 205.474C99.1413 203.176 98.6488 200.751 97.0972 198.94C95.9106 197.551 94.019 196.682 92.1804 197.021C90.3146 197.36 88.7666 198.538 87.2158 199.555C87.218 197.606 87.4002 195.543 86.5568 193.724C85.5516 191.598 82.9592 190.343 80.6701 190.936C78.7757 191.399 77.2671 192.699 75.6283 193.683C75.1733 192.462 75.033 191.16 74.8489 189.881Z" fill="#43D685"/>
<path opacity="0.6" d="M266.542 122.203C266.481 121.722 266.823 121.226 267.307 121.147C267.844 121.063 268.389 121.058 268.93 121.001C269.32 120.966 269.778 120.906 270.093 121.198C270.476 121.502 270.446 122.03 270.492 122.47C270.606 123.916 270.627 125.463 269.928 126.78C269.386 127.794 268.344 128.584 267.169 128.629C265.974 128.678 264.864 128.157 263.771 127.749C264.035 128.948 264.427 130.192 264.153 131.425C263.831 132.851 262.434 133.962 260.969 133.929C259.726 133.915 258.602 133.325 257.454 132.925C257.324 133.743 257.431 134.57 257.486 135.39C257.539 135.867 257.194 136.359 256.712 136.435C256.179 136.517 255.637 136.523 255.102 136.578C254.711 136.612 254.255 136.673 253.938 136.382C253.558 136.085 253.583 135.565 253.537 135.13C253.421 133.674 253.394 132.117 254.102 130.794C254.642 129.779 255.686 128.988 256.862 128.946C258.055 128.901 259.166 129.415 260.257 129.829C259.991 128.632 259.599 127.389 259.87 126.156C260.199 124.713 261.621 123.589 263.109 123.643C264.336 123.67 265.439 124.264 266.58 124.646C266.694 123.833 266.603 123.015 266.542 122.203Z" fill="#43D685"/>
<path opacity="0.6" d="M51.7881 67.3529C51.9311 67.2252 52.1334 67.2042 52.3105 67.1466C53.1791 66.9263 54.0412 66.6778 54.9108 66.4613C55.1644 66.3741 55.4566 66.5473 55.506 66.8099C55.6354 67.2602 55.7576 67.7144 55.8678 68.1698C55.9513 68.4213 55.779 68.7091 55.5207 68.7595C54.5578 69.0236 53.5933 69.2818 52.6263 69.5305C52.3746 69.6172 52.0827 69.4491 52.0325 69.1876C51.9007 68.736 51.7793 68.2805 51.6686 67.8232C51.6175 67.6588 51.6626 67.4728 51.7881 67.3529Z" fill="#43D685"/>
<path opacity="0.6" d="M261.755 138.05C261.931 137.893 262.179 137.867 262.397 137.796C263.465 137.525 264.525 137.22 265.594 136.954C265.906 136.847 266.265 137.06 266.326 137.382C266.485 137.936 266.635 138.494 266.771 139.054C266.873 139.364 266.662 139.717 266.344 139.779C265.16 140.104 263.974 140.422 262.785 140.727C262.476 140.834 262.117 140.627 262.055 140.306C261.893 139.75 261.744 139.191 261.608 138.628C261.545 138.426 261.601 138.197 261.755 138.05Z" fill="#43D685"/>
<path opacity="0.8" d="M241.131 25H241.497C242.229 25.1318 242.666 25.7747 243.178 26.2464C243.615 26.665 244.117 27.1897 243.976 27.8557C243.871 28.7541 242.736 29.3113 241.969 28.8125C241.395 28.398 240.932 27.8516 240.434 27.3528C239.984 26.9287 239.855 26.2056 240.185 25.6728C240.377 25.3113 240.762 25.1278 241.131 25Z" fill="#43D685"/>
<path opacity="0.8" d="M38.4143 140H38.8714C39.7858 140.165 40.333 140.968 40.972 141.558C41.5192 142.081 42.1463 142.737 41.9696 143.57C41.8387 144.693 40.4196 145.389 39.4612 144.766C38.744 144.247 38.1645 143.564 37.5425 142.941C36.9799 142.411 36.8185 141.507 37.2315 140.841C37.4711 140.389 37.952 140.16 38.4143 140Z" fill="#43D685"/>
<path opacity="0.8" d="M247.52 25H247.801C248.43 25.1034 248.921 25.6039 249 26.239V26.5178C248.859 27.2196 248.254 27.6507 247.793 28.1417C247.407 28.5212 246.999 28.9958 246.41 28.9972C245.643 29.0502 244.947 28.3457 245.003 27.58C245.009 26.9966 245.482 26.594 245.858 26.2118C246.359 25.7467 246.792 25.1088 247.52 25Z" fill="#43D685"/>
<path opacity="0.8" d="M46.5195 140H46.8009C47.4304 140.129 47.9212 140.755 48 141.549V141.897C47.8586 142.774 47.2536 143.313 46.7928 143.927C46.4067 144.401 45.9988 144.995 45.4102 144.996C44.6435 145.063 43.9474 144.182 44.0031 143.225C44.0086 142.496 44.4817 141.992 44.8582 141.515C45.3585 140.933 45.7922 140.136 46.5195 140Z" fill="#43D685"/>
<path opacity="0.8" d="M227.439 22.0869C228.091 21.7957 228.921 22.2723 228.99 22.9809C229.149 25.0727 227.351 27.0541 225.255 27.1235C224.608 27.1065 223.928 27.3408 223.568 27.9061C223.132 28.4316 223.439 29.2642 222.882 29.7169C222.287 30.2947 221.159 29.9353 221.02 29.1152C220.822 27.301 222.137 25.5061 223.881 25.0261C224.572 24.7872 225.391 25.009 226.003 24.5392C226.483 24.2162 226.708 23.6452 226.741 23.0856C226.752 22.6511 227.032 22.245 227.439 22.0869Z" fill="#43D685"/>
<path opacity="0.8" d="M242.179 30.087C243.013 29.7487 244.022 30.4456 243.998 31.3422C244.034 32.0309 243.441 32.4819 243.008 32.9248C242.546 33.3527 242.13 33.968 241.44 33.9952C240.658 34.0658 239.936 33.3445 240.004 32.5648C240.019 31.9399 240.552 31.5378 240.95 31.1289C241.342 30.7648 241.676 30.3057 242.179 30.087Z" fill="#43D685"/>
<path opacity="0.8" d="M39.7238 146.109C40.7666 145.686 42.027 146.557 41.9981 147.678C42.0423 148.539 41.3007 149.102 40.7598 149.656C40.1831 150.191 39.6626 150.96 38.8002 150.994C37.8221 151.082 36.9205 150.181 37.0056 149.206C37.0243 148.425 37.6894 147.922 38.1878 147.411C38.6777 146.956 39.0944 146.382 39.7238 146.109Z" fill="#43D685"/>
<path opacity="0.8" d="M245.008 31.4769C244.913 30.6901 245.632 29.9386 246.422 30.004C246.985 30.0053 247.381 30.4559 247.752 30.8181C248.217 31.3054 248.791 31.7383 249 32.4067V32.8274C248.872 33.4686 248.322 34.0186 247.645 33.9995C246.936 34.0186 246.49 33.3951 246.025 32.9567C245.621 32.5211 245.057 32.1195 245.008 31.4769Z" fill="#43D685"/>
<path opacity="0.8" d="M44.0085 147.846C43.9134 146.863 44.6323 145.923 45.4219 146.005C45.9845 146.007 46.3814 146.57 46.7524 147.023C47.2172 147.632 47.7907 148.173 48 149.008V149.534C47.8722 150.336 47.3218 151.023 46.645 150.999C45.9356 151.023 45.4898 150.244 45.0251 149.696C44.6214 149.151 44.0574 148.649 44.0085 147.846Z" fill="#43D685"/>
<path opacity="0.8" d="M237.807 38.1143C238.448 37.964 239.281 37.8537 239.73 38.5154C240.279 39.2115 239.947 40.4617 239.131 40.6781C238.556 40.8021 237.91 40.7994 237.461 41.286C236.862 41.8001 236.715 42.6671 236.711 43.4611C236.568 46.0607 234.293 48.2731 231.95 47.9726C231.08 47.7948 230.687 46.4715 231.291 45.7506C231.756 45.0697 232.622 45.3977 233.214 44.9759C233.882 44.5679 234.284 43.7409 234.266 42.9001C234.271 40.645 235.825 38.5622 237.807 38.1143Z" fill="#43D685"/>
<path opacity="0.8" d="M20.618 127.769C21.0628 128.435 21.5542 129.335 21.0826 130.115C20.6216 131.023 19.194 131.158 18.6021 130.321C18.2139 129.719 17.9231 128.985 17.2222 128.675C16.425 128.206 15.4727 128.393 14.6603 128.714C11.941 129.616 8.64782 127.94 7.88937 125.159C7.67526 124.098 8.84773 123.111 9.85831 123.501C10.7649 123.75 10.824 124.867 11.5235 125.366C12.2439 125.957 13.271 126.074 14.1216 125.711C16.4264 124.793 19.2593 125.704 20.618 127.769Z" fill="#43D685"/>
<path opacity="0.8" d="M222.667 33.1194C224.226 32.6507 225.982 33.6019 226.654 35.2707C227.359 36.8683 226.953 38.9645 225.732 40.0808C224.851 40.9308 223.589 41.2183 222.489 40.8296C221.561 40.5096 220.761 39.7333 220.344 38.7333C219.865 37.6145 219.888 36.2382 220.402 35.1407C220.861 34.1407 221.707 33.3857 222.667 33.1194ZM223.083 35.5832C222.661 35.7445 222.323 36.1645 222.224 36.662C222.026 37.5095 222.614 38.437 223.378 38.492C224.154 38.6045 224.89 37.7808 224.807 36.892C224.775 35.9532 223.856 35.2545 223.083 35.5832Z" fill="#43D685"/>
<path opacity="0.8" d="M37.0298 113.756C38.9956 114.046 40.4954 115.947 40.4393 118.065C40.4544 120.123 38.9887 122.15 37.0864 122.721C35.6937 123.181 34.1465 122.848 33.1067 121.878C32.2255 121.067 31.7087 119.836 31.7263 118.56C31.7317 117.126 32.4221 115.671 33.5263 114.763C34.5211 113.93 35.83 113.554 37.0298 113.756ZM36.304 116.591C35.7546 116.549 35.1743 116.825 34.8241 117.305C34.1936 118.107 34.4016 119.393 35.2276 119.838C36.0393 120.35 37.258 119.845 37.5944 118.857C38.0124 117.841 37.3251 116.632 36.304 116.591Z" fill="#43D685"/>
<path opacity="0.8" d="M246.405 47.2014C247.615 46.7299 249.039 47.1038 249.943 48.1394C250.556 48.811 250.912 49.7453 251 50.7046V51.2736C250.918 52.2692 250.536 53.2372 249.889 53.9189C249.031 54.8531 247.742 55.2246 246.6 54.8644C245.125 54.4391 244 52.8107 244.002 51.0685C243.949 49.3588 244.982 47.7129 246.405 47.2014ZM246.987 49.6215C246.533 49.8379 246.206 50.3681 246.192 50.9322C246.133 51.7989 246.848 52.5906 247.607 52.4918C248.385 52.448 248.979 51.495 248.769 50.6383C248.604 49.7703 247.694 49.2488 246.987 49.6215Z" fill="#43D685"/>
<path opacity="0.8" d="M22.749 153.227C24.1317 152.696 25.7583 153.117 26.7923 154.282C27.4924 155.037 27.9 156.088 28 157.168V157.808C27.9062 158.928 27.4699 160.017 26.7298 160.784C25.7496 161.835 24.2768 162.253 22.9715 161.847C21.2862 161.369 19.9997 159.537 20.0022 157.577C19.9422 155.654 21.1224 153.802 22.749 153.227ZM23.4141 155.949C22.8953 156.193 22.5214 156.789 22.5052 157.424C22.4377 158.399 23.2553 159.289 24.1217 159.178C25.0119 159.129 25.6908 158.057 25.4508 157.093C25.262 156.117 24.2218 155.53 23.4141 155.949Z" fill="#43D685"/>
<path opacity="0.8" d="M227.971 49.1177C228.844 48.7142 229.959 49.4023 229.991 50.3618C230.07 51.0059 229.602 51.5047 229.174 51.9126C228.717 52.3395 228.295 52.9352 227.618 52.988C226.732 53.1112 225.884 52.2647 226.013 51.3785C226.048 50.8152 226.5 50.4293 226.864 50.0537C227.215 49.7236 227.526 49.326 227.971 49.1177Z" fill="#43D685"/>
<path opacity="0.8" d="M3.43582 122.428C4.04147 123.126 3.97726 124.353 3.32126 124.651C2.90234 124.904 2.38094 124.609 1.93761 124.325C1.47063 124.021 0.898741 123.794 0.610346 123.181C0.19487 122.393 0.468735 121.369 1.1337 121.242C1.53902 121.118 1.97576 121.43 2.37261 121.663C2.73288 121.896 3.12539 122.074 3.43582 122.428Z" fill="#43D685"/>
<path d="M136.818 40.4165C141.295 39.7508 146.007 40.7287 149.818 43.1821C154.142 45.983 158.374 48.9341 162.71 51.7115C166.774 52.5715 170.854 53.3962 174.927 54.2327C176.906 54.6656 178.932 54.9925 180.806 55.8025C186.487 58.091 190.846 63.3276 192.101 69.3153C193.093 74.1249 194.065 78.9375 195.008 83.7559C195.09 84.3332 195.479 84.7897 195.782 85.2668C197.623 88.0501 199.449 90.8452 201.325 93.6049C202.83 95.858 204.518 98.0434 205.434 100.629C207.587 106.252 206.824 112.864 203.472 117.862C200.969 121.552 198.486 125.255 196.047 128.989C195.679 129.578 195.181 130.126 195.069 130.836C194.1 135.61 193.12 140.384 192.133 145.156C190.743 152.124 185.106 158.018 178.184 159.661C173.681 160.674 169.142 161.54 164.627 162.5C163.894 162.68 163.096 162.686 162.43 163.063C158.165 165.882 153.939 168.759 149.656 171.551C143.728 175.292 135.722 175.33 129.767 171.625C125.85 169.077 121.983 166.447 118.086 163.867C117.441 163.463 116.849 162.901 116.075 162.771C112.343 162.006 108.611 161.237 104.88 160.477C102.927 160.044 100.924 159.77 99.0481 159.054C93.0192 156.884 88.3244 151.453 87.055 145.173C86.1331 140.744 85.2083 136.314 84.3189 131.879C84.1716 131.207 84.1304 130.477 83.7092 129.905C81.7212 126.886 79.736 123.862 77.7068 120.869C76.3637 118.849 74.8616 116.902 73.9604 114.628C71.5482 108.929 72.1903 102.07 75.6215 96.9153C78.1103 93.2161 80.6108 89.5257 83.0436 85.7882C83.3941 85.2109 83.8741 84.6896 84.0685 84.0328C85.1377 78.9345 86.1302 73.8186 87.2376 68.7292C88.8457 61.964 94.5036 56.4092 101.281 54.8777C106.208 53.8439 111.144 52.8513 116.072 51.8234C116.405 51.7675 116.717 51.6291 116.994 51.4376C121.002 48.7574 125.016 46.0802 129.034 43.4118C131.369 41.8626 134.041 40.8229 136.818 40.4165ZM134.759 59.8404C121.406 61.1305 108.8 68.4082 100.977 79.2968C95.1574 87.2844 91.9383 97.1186 91.8911 107C91.8263 115.385 94.0412 123.767 98.2175 131.036C103.154 139.695 110.897 146.711 119.989 150.787C128.642 154.719 138.485 155.95 147.842 154.28C155.632 152.925 163.057 149.568 169.237 144.637C179.162 136.818 185.748 124.916 187.032 112.337C188.06 102.924 186.175 93.2249 181.707 84.8781C177.221 76.4164 170.12 69.3625 161.605 64.974C153.409 60.6975 143.954 58.8803 134.759 59.8404Z" fill="#43D685"/>
<path d="M135.528 69.3625C143.168 68.5466 151.056 70.0782 157.797 73.7774C164.957 77.6504 170.803 83.8914 174.22 91.2811C177.639 98.6118 178.617 107.053 176.974 114.973C175.162 123.959 169.961 132.2 162.642 137.716C156.001 142.767 147.666 145.542 139.319 145.456C131.084 145.415 122.893 142.605 116.372 137.575C109.468 132.3 104.464 124.598 102.479 116.133C100.527 108.019 101.351 99.2716 104.794 91.6669C108.373 83.6263 114.849 76.9318 122.755 73.0705C126.748 71.0913 131.098 69.8396 135.528 69.3625ZM136.276 108.888C132.916 105.595 129.623 102.237 126.28 98.924C124.009 101.174 121.735 103.421 119.456 105.66C123.809 110.036 128.189 114.387 132.542 118.76C133.758 120.097 135.72 120.684 137.469 120.204C138.538 119.959 139.419 119.264 140.158 118.483C146.646 111.948 153.182 105.46 159.662 98.9122C157.441 96.6591 155.226 94.4031 153.014 92.1411C147.43 97.7194 141.84 103.292 136.276 108.888Z" fill="#43D685"/>
</svg>
