<svg width="24" height="25" viewBox="0 0 24 25" fill="none" xmlns="http://www.w3.org/2000/svg">
<path d="M8.90998 21.17C8.71998 21.17 8.52998 21.1 8.37998 20.95C8.08998 20.66 8.08998 20.18 8.37998 19.89L14.9 13.37C15.38 12.89 15.38 12.11 14.9 11.63L8.37998 5.11002C8.08998 4.82002 8.08998 4.34002 8.37998 4.05002C8.66998 3.76002 9.14998 3.76002 9.43998 4.05002L15.96 10.57C16.47 11.08 16.76 11.77 16.76 12.5C16.76 13.23 16.48 13.92 15.96 14.43L9.43998 20.95C9.28998 21.09 9.09998 21.17 8.90998 21.17Z" fill="#111C23"/>
</svg>
