<svg width="32" height="32" viewBox="0 0 32 32" fill="none" xmlns="http://www.w3.org/2000/svg">
<rect x="0.5" y="0.5" width="31" height="31" rx="7.5" stroke="white"/>
<path d="M19.2134 9.33325H12.7867C11.3667 9.33325 10.2134 10.4933 10.2134 11.9066V21.2999C10.2134 22.4999 11.0734 23.0066 12.1267 22.4266L15.38 20.6199C15.7267 20.4266 16.2867 20.4266 16.6267 20.6199L19.88 22.4266C20.9334 23.0133 21.7934 22.5066 21.7934 21.2999V11.9066C21.7867 10.4933 20.6334 9.33325 19.2134 9.33325ZM18.0067 14.4999C17.36 14.7333 16.68 14.8533 16 14.8533C15.32 14.8533 14.64 14.7333 13.9934 14.4999C13.7334 14.4066 13.6 14.1199 13.6934 13.8599C13.7934 13.5999 14.08 13.4666 14.34 13.5599C15.4134 13.9466 16.5934 13.9466 17.6667 13.5599C17.9267 13.4666 18.2134 13.5999 18.3067 13.8599C18.4 14.1199 18.2667 14.4066 18.0067 14.4999Z" fill="white"/>
</svg>
