<svg width="16" height="16" viewBox="0 0 16 16" fill="none" xmlns="http://www.w3.org/2000/svg">
<path d="M8 6.85337C7.32 6.85337 6.64 6.73337 5.99334 6.50004C5.73334 6.4067 5.6 6.12004 5.69334 5.86004C5.79334 5.60004 6.08 5.4667 6.34 5.56004C7.41334 5.9467 8.59334 5.9467 9.66667 5.56004C9.92667 5.4667 10.2133 5.60004 10.3067 5.86004C10.4 6.12004 10.2667 6.4067 10.0067 6.50004C9.36 6.73337 8.68 6.85337 8 6.85337Z" fill="url(#paint0_linear_257_2599)"/>
<path d="M12.7133 15.1667C12.3733 15.1667 12 15.0667 11.64 14.86L8.38668 13.0534C8.19335 12.9467 7.81335 12.9467 7.62002 13.0534L4.36668 14.86C3.70668 15.2267 3.03335 15.2667 2.52002 14.96C2.00668 14.66 1.71335 14.0534 1.71335 13.3V3.90671C1.71335 2.21337 3.09335 0.833374 4.78668 0.833374H11.22C12.9133 0.833374 14.2933 2.21337 14.2933 3.90671V13.3C14.2933 14.0534 14 14.66 13.4867 14.96C13.2533 15.1 12.9867 15.1667 12.7133 15.1667ZM8.00002 11.9734C8.31335 11.9734 8.62002 12.04 8.86668 12.18L12.12 13.9867C12.46 14.18 12.7733 14.22 12.9733 14.1C13.1733 13.98 13.2867 13.6934 13.2867 13.3V3.90671C13.2867 2.76671 12.3533 1.83337 11.2133 1.83337H4.78668C3.64668 1.83337 2.71335 2.76671 2.71335 3.90671V13.3C2.71335 13.6934 2.82668 13.9867 3.02668 14.1C3.22668 14.2134 3.53335 14.18 3.88002 13.9867L7.13335 12.18C7.38002 12.04 7.68668 11.9734 8.00002 11.9734Z" fill="url(#paint1_linear_257_2599)"/>
<path d="M12.7133 15.1667C12.3733 15.1667 12 15.0667 11.64 14.86L8.38668 13.0534C8.19335 12.9467 7.81335 12.9467 7.62002 13.0534L4.36668 14.86C3.70668 15.2267 3.03335 15.2667 2.52002 14.96C2.00668 14.66 1.71335 14.0534 1.71335 13.3V3.90671C1.71335 2.21337 3.09335 0.833374 4.78668 0.833374H11.22C12.9133 0.833374 14.2933 2.21337 14.2933 3.90671V13.3C14.2933 14.0534 14 14.66 13.4867 14.96C13.2533 15.1 12.9867 15.1667 12.7133 15.1667ZM8.00002 11.9734C8.31335 11.9734 8.62002 12.04 8.86668 12.18L12.12 13.9867C12.46 14.18 12.7733 14.22 12.9733 14.1C13.1733 13.98 13.2867 13.6934 13.2867 13.3V3.90671C13.2867 2.76671 12.3533 1.83337 11.2133 1.83337H4.78668C3.64668 1.83337 2.71335 2.76671 2.71335 3.90671V13.3C2.71335 13.6934 2.82668 13.9867 3.02668 14.1C3.22668 14.2134 3.53335 14.18 3.88002 13.9867L7.13335 12.18C7.38002 12.04 7.68668 11.9734 8.00002 11.9734Z" fill="url(#paint2_linear_257_2599)"/>
<defs>
<linearGradient id="paint0_linear_257_2599" x1="10.5732" y1="5.76247" x2="10.4871" y2="7.01384" gradientUnits="userSpaceOnUse">
<stop stop-color="#43B5FF"/>
<stop offset="1" stop-color="#009AFF"/>
</linearGradient>
<linearGradient id="paint1_linear_257_2599" x1="14.9307" y1="3.34877" x2="11.4298" y2="16.0004" gradientUnits="userSpaceOnUse">
<stop stop-color="#43B5FF"/>
<stop offset="1" stop-color="#009AFF"/>
</linearGradient>
<linearGradient id="paint2_linear_257_2599" x1="14.9307" y1="3.34877" x2="11.4298" y2="16.0004" gradientUnits="userSpaceOnUse">
<stop stop-color="#43B5FF"/>
<stop offset="1" stop-color="#009AFF"/>
</linearGradient>
</defs>
</svg>
