<svg width="16" height="16" viewBox="0 0 16 16" fill="none" xmlns="http://www.w3.org/2000/svg">
<path d="M6.38002 12.5466C6.25336 12.5466 6.12669 12.5 6.02669 12.4L1.98002 8.35329C1.78669 8.15996 1.78669 7.83996 1.98002 7.64662L6.02669 3.59996C6.22002 3.40662 6.54002 3.40662 6.73336 3.59996C6.92669 3.79329 6.92669 4.11329 6.73336 4.30662L3.04002 7.99996L6.73336 11.6933C6.92669 11.8866 6.92669 12.2066 6.73336 12.4C6.64002 12.5 6.50669 12.5466 6.38002 12.5466Z" fill="#111C23"/>
<path d="M13.6667 8.5H2.44666C2.17332 8.5 1.94666 8.27333 1.94666 8C1.94666 7.72667 2.17332 7.5 2.44666 7.5H13.6667C13.94 7.5 14.1667 7.72667 14.1667 8C14.1667 8.27333 13.94 8.5 13.6667 8.5Z" fill="#111C23"/>
</svg>
