<svg width="32" height="32" viewBox="0 0 32 32" fill="none" xmlns="http://www.w3.org/2000/svg">
<rect width="32" height="32" rx="8" fill="url(#paint0_linear_547_3719)"/>
<path d="M19.2133 9.3335H12.7867C11.3667 9.3335 10.2133 10.4935 10.2133 11.9068V21.3002C10.2133 22.5002 11.0733 23.0068 12.1267 22.4268L15.38 20.6202C15.7267 20.4268 16.2867 20.4268 16.6267 20.6202L19.88 22.4268C20.9333 23.0135 21.7933 22.5068 21.7933 21.3002V11.9068C21.7867 10.4935 20.6333 9.3335 19.2133 9.3335ZM18.0067 14.5002C17.36 14.7335 16.68 14.8535 16 14.8535C15.32 14.8535 14.64 14.7335 13.9933 14.5002C13.7333 14.4068 13.6 14.1202 13.6933 13.8602C13.7933 13.6002 14.08 13.4668 14.34 13.5602C15.4133 13.9468 16.5933 13.9468 17.6667 13.5602C17.9267 13.4668 18.2133 13.6002 18.3067 13.8602C18.4 14.1202 18.2667 14.4068 18.0067 14.5002Z" fill="white"/>
<defs>
<linearGradient id="paint0_linear_547_3719" x1="33.6213" y1="5.61576" x2="26.6474" y2="34.3304" gradientUnits="userSpaceOnUse">
<stop stop-color="#43B5FF"/>
<stop offset="1" stop-color="#009AFF"/>
</linearGradient>
</defs>
</svg>
