<svg width="20" height="20" viewBox="0 0 20 20" fill="none" xmlns="http://www.w3.org/2000/svg">
<g opacity="0.6">
<path d="M9.99996 18.9582C5.05829 18.9582 1.04163 14.9415 1.04163 9.99984C1.04163 5.05817 5.05829 1.0415 9.99996 1.0415C14.9416 1.0415 18.9583 5.05817 18.9583 9.99984C18.9583 14.9415 14.9416 18.9582 9.99996 18.9582ZM9.99996 2.2915C5.74996 2.2915 2.29163 5.74984 2.29163 9.99984C2.29163 14.2498 5.74996 17.7082 9.99996 17.7082C14.25 17.7082 17.7083 14.2498 17.7083 9.99984C17.7083 5.74984 14.25 2.2915 9.99996 2.2915Z" fill="#111C23"/>
<path d="M13.0916 13.275C12.9833 13.275 12.875 13.25 12.775 13.1833L10.1916 11.6416C9.54995 11.2583 9.07495 10.4166 9.07495 9.67497V6.2583C9.07495 5.91663 9.35828 5.6333 9.69995 5.6333C10.0416 5.6333 10.325 5.91663 10.325 6.2583V9.67497C10.325 9.97497 10.575 10.4166 10.8333 10.5666L13.4166 12.1083C13.7166 12.2833 13.8083 12.6666 13.6333 12.9666C13.5083 13.1666 13.3 13.275 13.0916 13.275Z" fill="#111C23"/>
</g>
</svg>
