<svg width="20" height="20" viewBox="0 0 20 20" fill="none" xmlns="http://www.w3.org/2000/svg">
<path d="M7.64165 12.9831C7.48332 12.9831 7.32499 12.9248 7.19999 12.7998C6.95832 12.5581 6.95832 12.1581 7.19999 11.9165L11.9167 7.1998C12.1583 6.95814 12.5583 6.95814 12.8 7.1998C13.0417 7.44147 13.0417 7.84147 12.8 8.08314L8.08332 12.7998C7.96665 12.9248 7.79999 12.9831 7.64165 12.9831Z" fill="#111C23"/>
<path d="M12.3583 12.9831C12.2 12.9831 12.0417 12.9248 11.9167 12.7998L7.19999 8.08314C6.95832 7.84147 6.95832 7.44147 7.19999 7.1998C7.44165 6.95814 7.84165 6.95814 8.08332 7.1998L12.8 11.9165C13.0417 12.1581 13.0417 12.5581 12.8 12.7998C12.675 12.9248 12.5167 12.9831 12.3583 12.9831Z" fill="#111C23"/>
<path d="M12.5 18.9582H7.50002C2.97502 18.9582 1.04169 17.0248 1.04169 12.4998V7.49984C1.04169 2.97484 2.97502 1.0415 7.50002 1.0415H12.5C17.025 1.0415 18.9584 2.97484 18.9584 7.49984V12.4998C18.9584 17.0248 17.025 18.9582 12.5 18.9582ZM7.50002 2.2915C3.65835 2.2915 2.29169 3.65817 2.29169 7.49984V12.4998C2.29169 16.3415 3.65835 17.7082 7.50002 17.7082H12.5C16.3417 17.7082 17.7084 16.3415 17.7084 12.4998V7.49984C17.7084 3.65817 16.3417 2.2915 12.5 2.2915H7.50002Z" fill="#111C23"/>
</svg>
