<svg width="12" height="12" viewBox="0 0 12 12" fill="none" xmlns="http://www.w3.org/2000/svg">
<path d="M10.5 11H1.5C1.295 11 1.125 10.83 1.125 10.625C1.125 10.42 1.295 10.25 1.5 10.25H10.5C10.705 10.25 10.875 10.42 10.875 10.625C10.875 10.83 10.705 11 10.5 11Z" fill="white"/>
<path d="M9.51004 1.73983C8.54004 0.769834 7.59004 0.744834 6.59504 1.73983L5.99004 2.34483C5.94004 2.39483 5.92004 2.47483 5.94004 2.54483C6.32004 3.86983 7.38004 4.92983 8.70504 5.30983C8.72504 5.31483 8.74504 5.31983 8.76504 5.31983C8.82004 5.31983 8.87004 5.29983 8.91004 5.25983L9.51004 4.65483C10.005 4.16483 10.245 3.68983 10.245 3.20983C10.25 2.71483 10.01 2.23483 9.51004 1.73983Z" fill="white"/>
<path d="M7.80504 5.7649C7.66004 5.6949 7.52004 5.6249 7.38504 5.5449C7.27504 5.4799 7.17004 5.4099 7.06504 5.3349C6.98004 5.2799 6.88004 5.1999 6.78504 5.1199C6.77504 5.1149 6.74004 5.0849 6.70004 5.0449C6.53504 4.9049 6.35004 4.7249 6.18504 4.5249C6.17004 4.5149 6.14504 4.4799 6.11004 4.4349C6.06004 4.3749 5.97504 4.2749 5.90004 4.1599C5.84004 4.0849 5.77004 3.9749 5.70504 3.8649C5.62504 3.7299 5.55504 3.5949 5.48504 3.4549C5.39326 3.25823 5.13513 3.19981 4.98167 3.35327L2.17004 6.1649C2.10504 6.2299 2.04504 6.3549 2.03004 6.4399L1.76004 8.3549C1.71004 8.6949 1.80504 9.0149 2.01504 9.2299C2.19504 9.4049 2.44504 9.4999 2.71504 9.4999C2.77504 9.4999 2.83504 9.4949 2.89504 9.4849L4.81504 9.2149C4.90504 9.1999 5.03004 9.1399 5.09004 9.0749L7.90631 6.25863C8.0567 6.10824 8.00019 5.84947 7.80504 5.7649Z" fill="white"/>
</svg>
