<svg width="20" height="20" viewBox="0 0 20 20" fill="none" xmlns="http://www.w3.org/2000/svg">
<path d="M17.5 18.3335H2.5C2.15833 18.3335 1.875 18.0502 1.875 17.7085C1.875 17.3668 2.15833 17.0835 2.5 17.0835H17.5C17.8417 17.0835 18.125 17.3668 18.125 17.7085C18.125 18.0502 17.8417 18.3335 17.5 18.3335Z" fill="url(#paint0_linear_159_8960)"/>
<path d="M15.85 2.90005C14.2333 1.28338 12.65 1.24172 10.9916 2.90005L9.98331 3.90838C9.89998 3.99172 9.86665 4.12505 9.89998 4.24172C10.5333 6.45005 12.3 8.21672 14.5083 8.85005C14.5416 8.85838 14.575 8.86672 14.6083 8.86672C14.7 8.86672 14.7833 8.83338 14.85 8.76672L15.85 7.75838C16.675 6.94172 17.075 6.15005 17.075 5.35005C17.0833 4.52505 16.6833 3.72505 15.85 2.90005Z" fill="url(#paint1_linear_159_8960)"/>
<path d="M13.0083 9.60817C12.7666 9.4915 12.5333 9.37484 12.3083 9.2415C12.125 9.13317 11.95 9.0165 11.775 8.8915C11.6333 8.79984 11.4666 8.6665 11.3083 8.53317C11.2916 8.52484 11.2333 8.47484 11.1666 8.40817C10.8916 8.17484 10.5833 7.87484 10.3083 7.5415C10.2833 7.52484 10.2416 7.4665 10.1833 7.3915C10.1 7.2915 9.95831 7.12484 9.83331 6.93317C9.73331 6.80817 9.61665 6.62484 9.50831 6.4415C9.37498 6.2165 9.25831 5.9915 9.14165 5.75817C8.98868 5.43039 8.55847 5.33301 8.3027 5.58879L3.61665 10.2748C3.50831 10.3832 3.40831 10.5915 3.38331 10.7332L2.93331 13.9248C2.84998 14.4915 3.00831 15.0248 3.35831 15.3832C3.65831 15.6748 4.07498 15.8332 4.52498 15.8332C4.62498 15.8332 4.72498 15.8248 4.82498 15.8082L8.02498 15.3582C8.17498 15.3332 8.38331 15.2332 8.48331 15.1248L13.1771 10.4311C13.4278 10.1804 13.3336 9.74912 13.0083 9.60817Z" fill="url(#paint2_linear_159_8960)"/>
<defs>
<linearGradient id="paint0_linear_159_8960" x1="10" y1="17.0835" x2="10" y2="18.3335" gradientUnits="userSpaceOnUse">
<stop stop-color="#FFC868"/>
<stop offset="1" stop-color="#FFB034"/>
</linearGradient>
<linearGradient id="paint1_linear_159_8960" x1="13.4812" y1="1.67187" x2="13.4812" y2="8.86672" gradientUnits="userSpaceOnUse">
<stop stop-color="#FFC868"/>
<stop offset="1" stop-color="#FFB034"/>
</linearGradient>
<linearGradient id="paint2_linear_159_8960" x1="8.31407" y1="5.0415" x2="8.31407" y2="15.8332" gradientUnits="userSpaceOnUse">
<stop stop-color="#FFC868"/>
<stop offset="1" stop-color="#FFB034"/>
</linearGradient>
</defs>
</svg>
