<svg width="18" height="17" viewBox="0 0 18 17" fill="none" xmlns="http://www.w3.org/2000/svg">
<path fill-rule="evenodd" clip-rule="evenodd" d="M0.279419 13.5929C0.279419 13.1787 0.615205 12.8429 1.02942 12.8429H7.33014C7.74435 12.8429 8.08014 13.1787 8.08014 13.5929C8.08014 14.0071 7.74435 14.3429 7.33014 14.3429H1.02942C0.615205 14.3429 0.279419 14.0071 0.279419 13.5929Z" fill="white"/>
<path fill-rule="evenodd" clip-rule="evenodd" d="M9.3905 3.90039C9.3905 3.48618 9.72629 3.15039 10.1405 3.15039H16.4412C16.8554 3.15039 17.1912 3.48618 17.1912 3.90039C17.1912 4.3146 16.8554 4.65039 16.4412 4.65039H10.1405C9.72629 4.65039 9.3905 4.3146 9.3905 3.90039Z" fill="white"/>
<path fill-rule="evenodd" clip-rule="evenodd" d="M0.25 3.84625C0.25 2.13132 1.64903 0.75 3.36314 0.75C5.07726 0.75 6.47629 2.13132 6.47629 3.84625C6.47629 5.56119 5.07726 6.94251 3.36314 6.94251C1.64903 6.94251 0.25 5.56119 0.25 3.84625ZM3.36314 2.25C2.46729 2.25 1.75 2.96987 1.75 3.84625C1.75 4.72263 2.46729 5.44251 3.36314 5.44251C4.259 5.44251 4.97629 4.72263 4.97629 3.84625C4.97629 2.96987 4.259 2.25 3.36314 2.25Z" fill="white"/>
<path fill-rule="evenodd" clip-rule="evenodd" d="M11.5234 13.5538C11.5234 11.8387 12.9226 10.4575 14.6374 10.4575C16.3519 10.4575 17.7497 11.8392 17.7497 13.5538C17.7497 15.2684 16.3519 16.65 14.6374 16.65C12.9226 16.65 11.5234 15.2689 11.5234 13.5538ZM14.6374 11.9575C13.7406 11.9575 13.0234 12.6776 13.0234 13.5538C13.0234 14.43 13.7406 15.15 14.6374 15.15C15.5329 15.15 16.2497 14.4305 16.2497 13.5538C16.2497 12.6771 15.5329 11.9575 14.6374 11.9575Z" fill="white"/>
</svg>
