<svg width="20" height="20" viewBox="0 0 20 20" fill="none" xmlns="http://www.w3.org/2000/svg">
<g clip-path="url(#clip0_329_4516)">
<path d="M16.8058 5.09018C17.0455 3.52705 16.8058 2.48497 15.9667 1.52305C15.0477 0.440882 13.3695 0 11.2118 0H5.01837C4.57884 0 4.21922 0.320641 4.1393 0.761523L1.54208 17.1944C1.50212 17.515 1.74186 17.7956 2.06152 17.7956H5.89743L5.61773 19.479C5.57777 19.7595 5.77756 20 6.09722 20H9.33376C9.73333 20 10.053 19.7194 10.0929 19.3587L10.7722 15.1102C10.8122 14.7495 11.1718 14.4689 11.5314 14.4689H12.0109C15.1276 14.4689 17.6049 13.1864 18.3242 9.499C18.6039 7.97595 18.484 6.65331 17.6848 5.77154C17.4451 5.49098 17.1654 5.29058 16.8058 5.09018Z" fill="#009CDE"/>
<path d="M16.8058 5.09018C17.0455 3.52705 16.8058 2.48497 15.9667 1.52305C15.0477 0.440882 13.3695 0 11.2118 0H5.01837C4.57884 0 4.21922 0.320641 4.1393 0.761523L1.54208 17.1944C1.50212 17.515 1.74186 17.7956 2.06152 17.7956H5.89743L6.81645 11.8637C6.89636 11.4228 7.25598 11.1022 7.69551 11.1022H9.53355C13.1297 11.1022 15.9267 9.65932 16.7259 5.41082C16.7658 5.33066 16.7658 5.21042 16.8058 5.09018Z" fill="#012169"/>
<path d="M7.89529 5.13026C7.93525 4.8497 8.29487 4.48898 8.65448 4.48898H13.5293C14.0887 4.48898 14.6481 4.52906 15.1276 4.60922C15.5671 4.68938 16.3663 4.88978 16.7658 5.13026C17.0056 3.56713 16.7658 2.52505 15.9267 1.56313C15.0477 0.440882 13.3695 0 11.2118 0H5.01837C4.57884 0 4.21922 0.320641 4.1393 0.761523L1.54208 17.1944C1.50212 17.515 1.74186 17.7956 2.06152 17.7956H5.89743L7.89529 5.13026Z" fill="#003087"/>
</g>
<defs>
<clipPath id="clip0_329_4516">
<rect width="20" height="20" fill="white"/>
</clipPath>
</defs>
</svg>
