<svg width="160" height="160" viewBox="0 0 160 160" fill="none" xmlns="http://www.w3.org/2000/svg">
<g clip-path="url(#clip0_143_11363)">
<path d="M78.6031 0H80.5219C97.1187 0.071875 113.634 5.73438 126.737 15.9344C96.3875 15.9438 66.0344 15.9312 35.6844 15.9406C34.8812 15.9437 34.0781 15.9375 33.2719 15.9375C46.1437 5.9125 62.3031 0.303125 78.6031 0Z" fill="#008EFC"/>
<path d="M3.45624 77.8188C3.19062 63.797 6.8875 49.7251 14.0531 37.6626C14.075 53.0251 14.0562 68.3907 14.0625 83.7563C14.0344 94.3188 14.1187 104.884 14.0187 115.447C7.34375 104.084 3.62187 91.0032 3.45624 77.8188Z" fill="#008EFC"/>
<path d="M145.953 37.6689C153.541 50.4502 157.222 65.4846 156.459 80.3252C155.888 92.6627 152.241 104.835 145.95 115.46C145.931 89.5283 145.925 63.6002 145.953 37.6689Z" fill="#008EFC"/>
<path d="M31.0406 135.432C57.1938 135.388 83.3469 135.447 109.497 135.4C112.172 138.029 114.809 140.694 117.459 143.347C103.55 151.185 87.1531 154.479 71.2969 152.607C56.5688 151.007 42.4375 144.869 31.0406 135.432Z" fill="#008EFC"/>
<path d="M14.0594 21.8658C14.0563 18.7533 16.8719 15.9346 19.9875 15.9346C24.4156 15.9377 28.8438 15.9408 33.2719 15.9377C34.0781 15.9377 34.8813 15.9439 35.6844 15.9408C34.1594 16.4314 32.65 17.2346 31.7406 18.6002C30.8531 19.8033 30.6125 21.3346 30.6188 22.7971C30.6281 27.4564 30.6281 32.1189 30.625 36.7783C25.1063 36.8721 19.5844 36.7564 14.0656 36.8408C14.0594 31.8502 14.0656 26.8564 14.0594 21.8658ZM24.4938 24.2127C22.9313 24.8533 22.6531 27.2127 24.0375 28.1908C25.2813 29.2471 27.4313 28.4877 27.7406 26.8846C28.275 25.0846 26.1625 23.3439 24.4938 24.2127Z" fill="#017297"/>
<path d="M35.6844 15.9408C66.0344 15.9314 96.3875 15.9439 126.738 15.9346C131.163 15.9564 135.591 15.9064 140.016 15.9596C143.109 16.0346 145.841 18.7596 145.916 21.8564C145.972 26.8189 145.919 31.7846 145.938 36.7471C145.597 36.7564 145.259 36.7658 144.922 36.769C112.238 36.7221 79.5531 36.7627 46.8656 36.7502C41.4531 36.7689 36.0375 36.7096 30.625 36.7783C30.6281 32.119 30.6281 27.4564 30.6188 22.7971C30.6125 21.3346 30.8531 19.8033 31.7406 18.6002C32.65 17.2346 34.1594 16.4314 35.6844 15.9408ZM32.6125 24.2127C31.0688 24.8533 30.7813 27.1752 32.1313 28.1658C33.375 29.2596 35.5719 28.4971 35.8719 26.8658C36.3844 25.0658 34.275 23.3471 32.6125 24.2127ZM40.7406 24.2127C39.6781 24.6877 39.0906 26.0127 39.5094 27.1127C39.9031 28.3283 41.3875 29.0221 42.5688 28.519C43.8156 28.0721 44.4375 26.4721 43.8125 25.3033C43.2969 24.1877 41.8438 23.6783 40.7406 24.2127ZM66.9594 24.1783C66.2844 24.7502 66.6594 25.7752 66.5531 26.544C66.55 27.3158 66.3844 28.6689 67.5125 28.6689C87.4031 28.7158 107.294 28.669 127.184 28.6939C127.713 28.6908 128.456 28.7221 128.669 28.1033C128.828 26.9721 128.769 25.8096 128.7 24.669C128.575 24.1408 127.997 23.9564 127.513 24.0033C107.922 23.9908 88.3313 24.0096 68.7406 23.9939C68.1531 24.0408 67.4969 23.8814 66.9594 24.1783ZM133.553 24.2127C131.994 24.8565 131.716 27.2096 133.097 28.1877C134.35 29.2533 136.519 28.4783 136.813 26.8533C137.316 25.0596 135.209 23.3502 133.553 24.2127Z" fill="#0681AF"/>
<path d="M64.5125 59.2815C71.6157 55.994 79.75 55.1065 87.4125 56.6409C85.8157 57.5565 83.95 57.7722 82.2844 58.5253C78.7438 60.0128 75.25 61.8378 72.4438 64.5034C65.4313 66.444 59.1532 70.969 55.2688 77.144C51.2532 83.3784 49.7907 91.1878 51.2313 98.4597C52.4375 104.713 55.7719 110.525 60.5407 114.747C63.9157 117.775 68.0157 119.932 72.3657 121.178C74.9688 123.585 78.1125 125.347 81.3407 126.775C83.375 127.71 85.5594 128.225 87.6563 128.991C76.1032 131.55 63.4657 128.035 54.85 119.935C53.3063 118.507 51.9 116.932 50.6157 115.266C49.0657 113.238 47.7313 111.05 46.625 108.75C45.9 107.222 45.2782 105.65 44.7657 104.041C44.0719 101.857 43.6 99.6065 43.3125 97.3347C43.1594 96.2628 43.1344 95.1815 43.0938 94.1034C43.0344 91.5128 43.1313 88.9065 43.6157 86.3565C43.9 84.7534 44.2844 83.1722 44.7782 81.6222C45.5032 79.3659 46.4407 77.1815 47.575 75.1034C48.4563 73.4972 49.4594 71.9597 50.5688 70.5003C52.4313 68.0534 54.6063 65.8472 57.0032 63.919C59.3157 62.0909 61.8438 60.5315 64.5125 59.2815Z" fill="#0681AF"/>
<path d="M119.869 122.797C120.359 122.341 120.856 121.788 121.569 121.732C122.363 121.713 122.9 122.351 123.422 122.854C124.588 124.057 125.797 125.213 126.953 126.429C124.838 128.457 122.809 130.569 120.709 132.61C120.253 133.107 119.638 133.626 119.694 134.372C119.697 135.026 120.253 135.469 120.653 135.922C127.634 142.816 134.497 149.829 141.509 156.694C140.231 158.035 138.972 159.604 137.059 160.001H135.256C133.809 159.697 132.703 158.694 131.741 157.638C126.988 152.866 122.209 148.122 117.459 143.347C114.809 140.694 112.172 138.029 109.497 135.401C108.638 134.472 109.25 133.244 110.097 132.576C111.572 131.088 113.063 129.61 114.541 128.122C116.319 126.351 118.091 124.569 119.869 122.797Z" fill="#0681AF"/>
<path d="M24.4938 24.2123C26.1625 23.3436 28.275 25.0842 27.7406 26.8842C27.4313 28.4873 25.2813 29.2467 24.0375 28.1905C22.6531 27.2123 22.9313 24.853 24.4938 24.2123Z" fill="#FD6930"/>
<path d="M110.441 45.6685C112.306 46.2622 114.1 47.1028 115.691 48.2528C117.356 49.4841 118.819 50.9903 119.963 52.7185C121.234 54.6591 122.116 56.8497 122.531 59.1341C122.8 60.6872 122.862 62.2747 122.722 63.8466C122.497 66.0966 121.834 68.3028 120.772 70.2997C119.85 71.9997 118.644 73.5435 117.231 74.8622C116.113 75.8622 114.881 76.7372 113.553 77.4341C112.547 77.9497 111.491 78.3591 110.419 78.7091C108.391 77.781 106.306 76.8778 104.625 75.3716C101.316 72.6435 99.0969 68.656 98.6312 64.3841C99.3687 63.8903 100.034 63.131 99.9938 62.181C100.038 61.231 99.3656 60.4778 98.625 59.9841C99.1375 54.8778 102.303 50.2435 106.619 47.5497C107.828 46.7997 109.156 46.2716 110.441 45.6685ZM104.491 60.1403C102.906 60.9247 102.913 63.456 104.497 64.2372C105.956 65.1278 108.031 63.8997 107.963 62.1966C108.05 60.4778 105.956 59.2403 104.491 60.1403ZM112.572 60.081C111.041 60.7466 110.803 63.0747 112.163 64.0372C113.481 65.1591 115.738 64.2247 115.909 62.5153C116.247 60.7435 114.156 59.2153 112.572 60.081Z" fill="#FD6930"/>
<path d="M86.675 78.2097C87.6844 77.1284 89.475 76.9034 90.6813 77.7847C91.7344 78.5909 92.5813 79.6284 93.5469 80.5316C94.3688 81.3753 95.4125 82.1941 95.5782 83.4409C95.7782 84.5409 95.2625 85.6222 94.4782 86.3659C92.3188 88.5347 90.1438 90.6847 87.9907 92.8566C90.2344 95.1222 92.5219 97.3409 94.7375 99.6316C95.8625 100.747 95.9032 102.716 94.8125 103.866C93.6063 105.153 92.3469 106.394 91.075 107.613C89.9282 108.753 87.9125 108.747 86.7813 107.594C84.4938 105.369 82.275 103.078 80 100.841C77.8938 102.963 75.7469 105.047 73.6813 107.21C72.725 105.9 71.4625 104.869 70.3907 103.666C69.4938 102.738 69.4844 101.228 70.1844 100.188C71.9594 97.9191 74.2469 96.1003 76.175 93.9691C76.8063 93.3503 76.7875 92.2566 76.1469 91.6566C74.7688 90.2222 73.3407 88.8347 71.9344 87.4284C70.8375 86.3941 69.4219 85.1784 69.7438 83.4878C70.2 81.2847 72.5125 80.2753 73.6594 78.4816C75.7344 80.6472 77.8875 82.7378 80 84.8691C82.2344 82.6597 84.4344 80.4128 86.675 78.2097Z" fill="#FD6930"/>
<path d="M32.6125 24.2124C34.275 23.3467 36.3844 25.0655 35.8719 26.8655C35.5719 28.4967 33.375 29.2592 32.1313 28.1655C30.7813 27.1749 31.0688 24.853 32.6125 24.2124Z" fill="#FFE177"/>
<path d="M40.7406 24.2127C41.8438 23.6783 43.2969 24.1877 43.8125 25.3033C44.4375 26.4721 43.8157 28.0721 42.5688 28.519C41.3875 29.0221 39.9032 28.3283 39.5094 27.1127C39.0907 26.0127 39.6781 24.6877 40.7406 24.2127Z" fill="#00F2A6"/>
<path d="M66.9594 24.1779C67.4969 23.881 68.1532 24.0404 68.7407 23.9935C88.3313 24.0091 107.922 23.9904 127.513 24.0029C127.997 23.956 128.575 24.1404 128.7 24.6685C128.769 25.8091 128.828 26.9716 128.669 28.1029C128.456 28.7216 127.713 28.6904 127.184 28.6935C107.294 28.6685 87.4032 28.7154 67.5125 28.6685C66.3844 28.6685 66.55 27.3154 66.5532 26.5435C66.6594 25.7748 66.2844 24.7498 66.9594 24.1779Z" fill="white"/>
<path d="M133.553 24.2123C135.209 23.3498 137.316 25.0592 136.813 26.8529C136.519 28.4779 134.35 29.2529 133.097 28.1873C131.716 27.2092 131.994 24.8561 133.553 24.2123Z" fill="white"/>
<path d="M28.3406 48.7593C28.3625 48.3468 28.5781 48.1155 28.9844 48.0624C36.5094 47.903 44.0406 48.053 51.5687 47.978C52.1625 48.0374 53 47.8687 53.3344 48.5124C53.5281 49.6937 53.5437 50.928 53.3156 52.1062C53.1375 52.7218 52.3813 52.653 51.8812 52.6874C44.8031 52.6812 37.7219 52.6718 30.6437 52.6905C29.9062 52.5937 28.8906 52.8905 28.3969 52.1718C28.1937 51.0499 28.2156 49.8905 28.3406 48.7593Z" fill="white"/>
<path d="M58.5125 48.1875C58.9563 47.9312 59.4969 48.0219 59.9844 47.9844C66.5531 48.0125 73.1187 47.9781 79.6844 48C80.1625 47.9781 80.8719 48.1219 80.8781 48.7281C80.9906 49.7719 80.9875 50.8281 80.8906 51.8687C80.8437 52.4281 80.2187 52.7375 79.7094 52.6812C73.0375 52.6844 66.3656 52.675 59.6969 52.6906C59.175 52.6812 58.45 52.7156 58.2344 52.1125C58.05 51.2062 58.1 50.2687 58.125 49.35C58.1719 48.9437 58.1031 48.4312 58.5125 48.1875Z" fill="white"/>
<path d="M85.7406 48.2184C87.1312 47.8622 88.5719 47.9965 89.9906 47.9965C91.8562 48.0215 93.7344 47.859 95.5844 48.184C93.8625 49.4465 92.3594 51.0059 91.1812 52.7872C89.6469 52.6247 88.1031 52.7403 86.5687 52.6465C86.125 52.6622 85.7031 52.3122 85.6844 51.859C85.4969 50.6528 85.6219 49.4278 85.7406 48.2184Z" fill="white"/>
<path d="M115.691 48.2527C116.487 48.0715 117.306 47.9559 118.128 47.9777C120.934 48.0121 123.741 47.9871 126.547 47.9934C128.209 48.0059 129.884 47.8871 131.534 48.1434C131.772 49.4621 131.928 50.8496 131.566 52.159C131.422 52.7215 130.791 52.6309 130.344 52.6777C126.884 52.709 123.422 52.6246 119.962 52.7184C118.819 50.9902 117.356 49.484 115.691 48.2527Z" fill="white"/>
<path d="M28.7063 59.3217C29.3313 59.1405 29.9938 59.1874 30.6375 59.1686C33.0282 59.2061 35.4219 59.1499 37.8157 59.1717C38.3188 59.2124 39.1 59.153 39.2625 59.7811C39.475 60.9467 39.475 62.1717 39.2563 63.3374C39.05 63.9374 38.3125 63.7905 37.8188 63.8686C34.875 63.8842 31.9313 63.8905 28.9875 63.7905C28.0844 63.6467 28.3375 62.5311 28.2563 61.878C28.3438 61.0405 28.025 59.9592 28.7063 59.3217Z" fill="white"/>
<path d="M44.125 59.9935C44.1469 59.3998 44.7687 59.1466 45.2844 59.1841C47.3781 59.1341 49.475 59.206 51.5719 59.181C55.8844 59.231 60.2031 59.0623 64.5125 59.281C61.8438 60.531 59.3156 62.0904 57.0031 63.9185C53.3187 63.8123 49.6312 63.8841 45.9437 63.881C45.3687 63.8498 44.7406 63.8904 44.2437 63.5529C43.9281 62.3966 43.9906 61.1716 44.125 59.9935Z" fill="white"/>
<path d="M122.531 59.1343C125.456 59.328 128.412 58.9718 131.325 59.303C132.091 60.6218 131.75 62.2843 131.516 63.7155C128.597 64.028 125.653 63.8093 122.722 63.8468C122.862 62.2749 122.8 60.6874 122.531 59.1343Z" fill="white"/>
<path d="M96.0688 60.4656C96.7406 59.7906 97.7531 59.7781 98.625 59.9843C99.3656 60.4781 100.038 61.2312 99.9938 62.1812C100.034 63.1312 99.3688 63.8906 98.6313 64.3843C97.8313 64.5625 96.9156 64.6125 96.2469 64.0562C95.0969 63.2406 95.0063 61.3906 96.0688 60.4656Z" fill="white"/>
<path d="M104.491 60.1403C105.956 59.2403 108.05 60.4778 107.963 62.1966C108.031 63.8997 105.956 65.1278 104.497 64.2372C102.913 63.4559 102.906 60.9247 104.491 60.1403Z" fill="white"/>
<path d="M112.572 60.0809C114.156 59.2153 116.247 60.7434 115.909 62.5153C115.738 64.2246 113.481 65.159 112.163 64.0371C110.803 63.0746 111.041 60.7465 112.572 60.0809Z" fill="white"/>
<path d="M78.0906 68.3215C82.3719 67.9778 86.7594 68.7653 90.6156 70.6747C92.6813 74.2465 96.0094 77.084 99.9188 78.4434C104.391 84.4778 105.772 92.6372 103.609 99.8247C101.963 105.45 98.2125 110.422 93.275 113.578C88.9594 116.368 83.7375 117.747 78.6094 117.418C77.6469 116.306 76.2375 115.797 75.0719 114.953C73.0938 113.522 71.2219 111.915 69.7188 109.981C68.8375 108.872 67.8375 107.778 67.5375 106.343C68.5063 107.256 69.4563 108.54 70.9375 108.484C72.025 108.6 72.9906 107.993 73.6813 107.209C75.7469 105.047 77.8938 102.962 80 100.84C82.275 103.078 84.4938 105.368 86.7813 107.593C87.9125 108.747 89.9281 108.753 91.075 107.612C92.3469 106.393 93.6063 105.153 94.8125 103.865C95.9031 102.715 95.8625 100.747 94.7375 99.6309C92.5219 97.3403 90.2344 95.1215 87.9906 92.8559C90.1438 90.684 92.3188 88.534 94.4781 86.3653C95.2625 85.6215 95.7781 84.5403 95.5781 83.4403C95.4125 82.1934 94.3688 81.3747 93.5469 80.5309C92.5813 79.6278 91.7344 78.5903 90.6813 77.784C89.475 76.9028 87.6844 77.1278 86.675 78.209C84.4344 80.4122 82.2344 82.659 80 84.8684C77.8875 82.7372 75.7344 80.6465 73.6594 78.4809C72.9688 77.6965 71.9906 77.0872 70.9063 77.1934C69.3844 77.2059 68.4313 78.559 67.4188 79.4965C67.7406 78.0622 68.7438 76.9715 69.6219 75.8528C71.9781 72.6684 75.3531 70.4715 78.7281 68.5059C78.5688 68.459 78.25 68.3653 78.0906 68.3215Z" fill="white"/>
<path d="M28.375 70.9438C28.8125 70.1406 29.8938 70.475 30.6344 70.375C36.5719 70.4062 42.5094 70.3844 48.4438 70.3781C49.1532 70.3906 49.8594 70.4438 50.5688 70.5C49.4594 71.9594 48.4563 73.4969 47.575 75.1031C41.925 75.0469 36.275 75.0719 30.625 75.0969C29.8969 75.0125 28.9282 75.3031 28.4125 74.6406C28.1719 73.4281 28.2125 72.1625 28.375 70.9438Z" fill="white"/>
<path d="M117.231 74.8623C118.644 73.5436 119.85 71.9998 120.772 70.2998C124.125 70.5467 127.491 70.2404 130.841 70.4529C131.838 70.5029 131.719 71.7779 131.772 72.4904C131.691 73.2936 131.966 74.4717 131.159 74.9592C129.434 75.2373 127.675 75.0092 125.938 75.0748C123.038 74.9654 120.106 75.3154 117.231 74.8623Z" fill="white"/>
<path d="M28.3656 82.2125C28.75 81.3406 29.8875 81.7094 30.6313 81.6094C35.3469 81.6469 40.0625 81.6281 44.7781 81.6219C44.2844 83.1719 43.9 84.7531 43.6156 86.3563C39.2844 86.2719 34.9563 86.3156 30.625 86.3313C29.9094 86.2313 28.9281 86.5375 28.4344 85.8656C28.1469 84.6781 28.2281 83.4156 28.3656 82.2125Z" fill="white"/>
<path d="M115.166 81.6184C120.119 81.634 125.075 81.6309 130.028 81.6152C130.569 81.6777 131.431 81.509 131.603 82.2184C131.841 83.3371 131.838 84.5246 131.622 85.6465C131.434 86.3559 130.575 86.2715 130.009 86.3184C125.453 86.3402 120.894 86.2527 116.341 86.359C116.05 84.7559 115.659 83.1715 115.166 81.6184Z" fill="white"/>
<path d="M63.5281 93.1184C63.6219 90.5309 63.7844 87.8965 64.675 85.4434C66.9719 88.034 69.55 90.3652 71.9531 92.859C69.5531 95.334 67 97.6652 64.6969 100.231C63.8375 97.9652 63.6469 95.5152 63.5281 93.1184Z" fill="white"/>
<path d="M28.3625 93.4525C28.7125 92.5525 29.8906 92.9119 30.6375 92.8057C34.6969 92.8807 38.7594 92.7838 42.8188 92.8588C42.9125 93.2713 43.0156 93.6838 43.0938 94.1025C43.1344 95.1807 43.1594 96.2619 43.3125 97.3338C41.7063 97.6494 40.0656 97.4994 38.4406 97.5182C35.8375 97.5307 33.2344 97.5057 30.6313 97.54C29.8844 97.4307 28.675 97.8088 28.3563 96.8744C28.2094 95.7432 28.2094 94.5838 28.3625 93.4525Z" fill="white"/>
<path d="M117.263 92.8809C121.403 92.7684 125.55 92.8746 129.691 92.8184C130.334 92.8902 131.35 92.6371 131.6 93.4527C131.847 94.5746 131.853 95.7746 131.616 96.8965C131.409 97.5965 130.559 97.4684 130 97.5277C126.456 97.5465 122.913 97.4871 119.372 97.5402C118.453 97.5621 117.538 97.4809 116.634 97.3371C116.797 96.0309 116.884 94.7184 116.897 93.4027C116.988 93.2715 117.172 93.0121 117.263 92.8809Z" fill="white"/>
<path d="M28.4344 104.431C29.0157 103.868 29.9125 104.118 30.6407 104.043C35.3469 104.062 40.0563 104.087 44.7657 104.04C45.2782 105.649 45.9 107.221 46.625 108.749C41.2969 108.762 35.9657 108.728 30.6375 108.768C29.8907 108.665 28.6907 109.028 28.3625 108.106C28.2188 106.893 28.1625 105.631 28.4344 104.431Z" fill="white"/>
<path d="M113.334 108.718C114.066 107.184 114.684 105.596 115.203 103.978C116.088 104.143 117.275 103.793 117.969 104.468C118.222 105.787 118.303 107.24 117.878 108.524C116.413 108.974 114.841 108.693 113.334 108.718Z" fill="white"/>
<path d="M123.216 104.216C124.188 103.925 125.234 104.103 126.241 104.062C127.881 104.122 129.544 103.925 131.175 104.159C131.897 104.587 131.691 105.566 131.763 106.266C131.7 107.062 131.966 108.137 131.172 108.656C129.228 108.869 127.263 108.684 125.313 108.766C124.519 108.719 123.591 108.906 122.938 108.341C122.738 107.341 122.778 106.309 122.819 105.297C122.878 104.941 122.809 104.384 123.216 104.216Z" fill="white"/>
<path d="M28.3531 115.956C28.6219 114.962 29.8781 115.359 30.6312 115.256C33.7562 115.334 36.8844 115.171 40.0031 115.321C41.175 115.278 40.8969 116.737 40.975 117.503C40.9062 118.328 41.2 119.871 39.9844 119.918C36.875 120.043 33.7562 119.893 30.6406 119.974C29.9 119.868 28.7187 120.243 28.3656 119.346C28.2062 118.228 28.2094 117.078 28.3531 115.956Z" fill="white"/>
<path d="M45.6562 116.219C45.6281 115.815 45.8469 115.412 46.2781 115.369C47.7125 115.153 49.1687 115.294 50.6156 115.265C51.9 116.931 53.3062 118.506 54.85 119.934C52.2906 119.969 49.7312 119.969 47.1719 119.962C46.6469 119.931 45.8656 119.953 45.7219 119.297C45.5281 118.284 45.5687 117.24 45.6562 116.219Z" fill="white"/>
<path d="M112.566 115.471C114.291 115.134 116.053 115.287 117.797 115.271C121.759 115.265 125.722 115.284 129.684 115.259C130.253 115.29 130.866 115.231 131.394 115.49C131.953 116.45 131.75 117.643 131.731 118.706C131.741 119.325 131.375 120.037 130.656 119.934C126.15 120.037 121.638 119.84 117.134 120.037C115.606 118.518 114.088 116.993 112.566 115.471Z" fill="white"/>
<path opacity="0.06" d="M14.0656 36.8408C19.5844 36.7564 25.1062 36.8721 30.625 36.7783C30.6 40.4439 30.6781 44.1096 30.5937 47.7721C30.0531 47.8596 29.5156 47.9439 28.9844 48.0627C28.5781 48.1158 28.3625 48.3471 28.3406 48.7596C28.2156 49.8908 28.1937 51.0502 28.3969 52.1721C28.8906 52.8908 29.9062 52.5939 30.6437 52.6908C30.6187 54.8502 30.6125 57.0096 30.6375 59.1689C29.9937 59.1877 29.3312 59.1408 28.7062 59.3221C28.025 59.9596 28.3437 61.0408 28.2562 61.8783C28.3375 62.5314 28.0844 63.6471 28.9875 63.7908C29.5219 63.9064 30.0594 63.9908 30.6 64.0814C30.6656 66.1783 30.6062 68.2752 30.6344 70.3752C29.8937 70.4752 28.8125 70.1408 28.375 70.9439C28.2125 72.1627 28.1719 73.4283 28.4125 74.6408C28.9281 75.3033 29.8969 75.0127 30.625 75.0971C30.6281 77.2689 30.6156 79.4377 30.6312 81.6096C29.8875 81.7096 28.75 81.3408 28.3656 82.2127C28.2281 83.4158 28.1469 84.6783 28.4344 85.8658C28.9281 86.5377 29.9094 86.2314 30.625 86.3314C30.625 88.4877 30.6187 90.6471 30.6375 92.8064C29.8906 92.9127 28.7125 92.5533 28.3625 93.4533C28.2094 94.5846 28.2094 95.7439 28.3562 96.8752C28.675 97.8096 29.8844 97.4314 30.6312 97.5408C30.625 99.7064 30.6156 101.875 30.6406 104.044C29.9125 104.119 29.0156 103.869 28.4344 104.431C28.1625 105.631 28.2187 106.894 28.3625 108.106C28.6906 109.028 29.8906 108.666 30.6375 108.769C30.6187 110.931 30.6219 113.094 30.6312 115.256C29.8781 115.36 28.6219 114.963 28.3531 115.956C28.2094 117.078 28.2062 118.228 28.3656 119.347C28.7187 120.244 29.9 119.869 30.6406 119.975C30.5687 125.003 30.7125 130.031 30.5687 135.056C24 129.522 18.3406 122.872 14.0187 115.447C14.1187 104.885 14.0344 94.3189 14.0625 83.7564C14.0562 68.3908 14.075 53.0252 14.0531 37.6627C14.0562 37.4564 14.0625 37.0471 14.0656 36.8408Z" fill="#111C23"/>
<path opacity="0.1" d="M30.625 36.7784C36.0375 36.7096 41.4531 36.769 46.8656 36.7502C79.5531 36.7627 112.237 36.7221 144.922 36.769C145.175 36.7815 145.675 36.8065 145.925 36.819C145.931 37.0315 145.944 37.4565 145.953 37.669C145.925 63.6002 145.931 89.5284 145.95 115.46C145.909 120.097 145.966 124.735 145.922 129.369C145.9 132.297 143.525 134.972 140.622 135.344C139.05 135.5 137.466 135.394 135.891 135.397C132.919 132.4 129.906 129.441 126.953 126.428C125.797 125.213 124.587 124.056 123.422 122.853C122.9 122.35 122.362 121.713 121.569 121.731C120.856 121.788 120.359 122.341 119.869 122.797C118.966 121.866 118.047 120.953 117.134 120.038C121.637 119.841 126.15 120.038 130.656 119.935C131.375 120.038 131.741 119.325 131.731 118.706C131.75 117.644 131.953 116.45 131.394 115.491C130.866 115.231 130.253 115.291 129.684 115.26C125.722 115.285 121.759 115.266 117.797 115.272C116.053 115.288 114.291 115.135 112.566 115.472C111.909 114.816 111.256 114.16 110.6 113.506C111.622 111.975 112.541 110.378 113.334 108.719C114.841 108.694 116.412 108.975 117.878 108.525C118.303 107.241 118.222 105.788 117.969 104.469C117.275 103.794 116.087 104.144 115.203 103.978C115.881 101.816 116.366 99.5909 116.634 97.3377C117.537 97.4815 118.453 97.5627 119.372 97.5409C122.912 97.4877 126.456 97.5471 130 97.5284C130.559 97.469 131.409 97.5971 131.616 96.8971C131.853 95.7752 131.847 94.5752 131.6 93.4534C131.35 92.6377 130.334 92.8909 129.691 92.819C125.55 92.8752 121.403 92.769 117.262 92.8815C117.172 93.0127 116.987 93.2721 116.897 93.4034C116.937 91.044 116.747 88.6846 116.341 86.3596C120.894 86.2534 125.453 86.3409 130.009 86.319C130.575 86.2721 131.434 86.3565 131.622 85.6471C131.837 84.5252 131.841 83.3377 131.603 82.219C131.431 81.5096 130.569 81.6784 130.028 81.6159C125.075 81.6315 120.119 81.6346 115.166 81.619C114.716 80.194 114.153 78.8065 113.553 77.4346C114.881 76.7377 116.112 75.8627 117.231 74.8627C120.106 75.3159 123.037 74.9659 125.937 75.0752C127.675 75.0096 129.434 75.2377 131.159 74.9596C131.966 74.4721 131.691 73.294 131.772 72.4909C131.719 71.7784 131.837 70.5034 130.841 70.4534C127.491 70.2409 124.125 70.5471 120.772 70.3002C121.834 68.3034 122.497 66.0971 122.722 63.8471C125.653 63.8096 128.597 64.0284 131.516 63.7159C131.75 62.2846 132.091 60.6221 131.325 59.3034C128.412 58.9721 125.456 59.3284 122.531 59.1346C122.116 56.8502 121.234 54.6596 119.962 52.719C123.422 52.6252 126.884 52.7096 130.344 52.6784C130.791 52.6315 131.422 52.7221 131.566 52.1596C131.928 50.8502 131.772 49.4627 131.534 48.144C129.884 47.8877 128.209 48.0065 126.547 47.994C123.741 47.9877 120.934 48.0127 118.128 47.9783C117.306 47.9565 116.487 48.0721 115.691 48.2534C114.1 47.1034 112.306 46.2627 110.441 45.669C105.456 44.1533 99.8031 45.1377 95.5844 48.1846C93.7344 47.8596 91.8562 48.0221 89.9906 47.9971C88.5719 47.9971 87.1312 47.8627 85.7406 48.219C85.6219 49.4284 85.4969 50.6533 85.6844 51.8596C85.7031 52.3127 86.125 52.6627 86.5687 52.6471C88.1031 52.7409 89.6469 52.6252 91.1812 52.7877C90.3187 54.1284 89.6375 55.5846 89.1562 57.1065C88.575 56.944 88 56.7721 87.4125 56.6409C79.75 55.1065 71.6156 55.994 64.5125 59.2815C60.2031 59.0627 55.8844 59.2315 51.5719 59.1815C49.475 59.2065 47.3781 59.1346 45.2844 59.1846C44.7687 59.1471 44.1469 59.4002 44.125 59.994C43.9906 61.1721 43.9281 62.3971 44.2437 63.5534C44.7406 63.8909 45.3687 63.8502 45.9438 63.8815C49.6312 63.8846 53.3187 63.8127 57.0031 63.919C54.6062 65.8471 52.4312 68.0534 50.5688 70.5002C49.8594 70.444 49.1531 70.3909 48.4438 70.3784C42.5094 70.3846 36.5719 70.4065 30.6344 70.3752C30.6062 68.2752 30.6656 66.1784 30.6 64.0815C30.0594 63.9909 29.5219 63.9065 28.9875 63.7909C31.9313 63.8909 34.875 63.8846 37.8187 63.869C38.3125 63.7909 39.05 63.9377 39.2562 63.3377C39.475 62.1721 39.475 60.9471 39.2625 59.7815C39.1 59.1534 38.3187 59.2127 37.8156 59.1721C35.4219 59.1502 33.0281 59.2065 30.6375 59.169C30.6125 57.0096 30.6187 54.8502 30.6437 52.6909C37.7219 52.6721 44.8031 52.6815 51.8812 52.6877C52.3812 52.6534 53.1375 52.7221 53.3156 52.1065C53.5437 50.9284 53.5281 49.694 53.3344 48.5127C53 47.869 52.1625 48.0377 51.5687 47.9783C44.0406 48.0534 36.5094 47.9034 28.9844 48.0627C29.5156 47.944 30.0531 47.8596 30.5938 47.7721C30.6781 44.1096 30.6 40.444 30.625 36.7784ZM58.5125 48.1877C58.1031 48.4315 58.1719 48.944 58.125 49.3502C58.1 50.269 58.05 51.2065 58.2344 52.1127C58.45 52.7158 59.175 52.6815 59.6969 52.6909C66.3656 52.6752 73.0375 52.6846 79.7094 52.6815C80.2187 52.7377 80.8437 52.4283 80.8906 51.869C80.9875 50.8283 80.9906 49.7721 80.8781 48.7283C80.8719 48.1221 80.1625 47.9784 79.6844 48.0002C73.1187 47.9784 66.5531 48.0127 59.9844 47.9846C59.4969 48.0221 58.9562 47.9315 58.5125 48.1877ZM123.216 104.216C122.809 104.385 122.878 104.941 122.819 105.297C122.778 106.31 122.737 107.341 122.937 108.341C123.591 108.906 124.519 108.719 125.312 108.766C127.262 108.685 129.228 108.869 131.172 108.656C131.966 108.138 131.7 107.063 131.762 106.266C131.691 105.566 131.897 104.588 131.175 104.16C129.544 103.925 127.881 104.122 126.241 104.063C125.234 104.103 124.187 103.925 123.216 104.216Z" fill="#111C23"/>
<path opacity="0.1" d="M30.625 75.0971C36.275 75.0721 41.925 75.0471 47.575 75.1033C46.4406 77.1814 45.5031 79.3658 44.7781 81.6221C40.0625 81.6283 35.3468 81.6471 30.6312 81.6096C30.6156 79.4377 30.6281 77.2689 30.625 75.0971Z" fill="#111C23"/>
<path opacity="0.1" d="M30.625 86.332C34.9563 86.3163 39.2844 86.2726 43.6156 86.357C43.1313 88.907 43.0344 91.5132 43.0938 94.1038C43.0156 93.6851 42.9125 93.2726 42.8188 92.8601C38.7594 92.7851 34.6969 92.882 30.6375 92.807C30.6188 90.6476 30.625 88.4882 30.625 86.332Z" fill="#111C23"/>
<path opacity="0.1" d="M43.3125 97.335C43.6 99.6068 44.0719 101.857 44.7656 104.041C40.0562 104.088 35.3469 104.063 30.6406 104.044C30.6156 101.876 30.625 99.7068 30.6312 97.5412C33.2344 97.5068 35.8375 97.5318 38.4406 97.5193C40.0656 97.5006 41.7062 97.6506 43.3125 97.335Z" fill="#111C23"/>
<path opacity="0.1" d="M30.6375 108.769C35.9656 108.728 41.2968 108.762 46.625 108.75C47.7312 111.05 49.0656 113.237 50.6156 115.265C49.1687 115.294 47.7125 115.153 46.2781 115.369C45.8468 115.412 45.6281 115.815 45.6562 116.219C45.5687 117.24 45.5281 118.284 45.7218 119.297C45.8656 119.953 46.6468 119.931 47.1718 119.962C49.7312 119.969 52.2906 119.969 54.85 119.934C63.4656 128.034 76.1031 131.55 87.6562 128.99C92.3593 127.962 96.8718 126.056 100.847 123.328C103.928 126.412 107.009 129.497 110.097 132.575C109.25 133.244 108.637 134.472 109.497 135.4C83.3468 135.447 57.1937 135.387 31.0406 135.431C30.9219 135.337 30.6875 135.15 30.5687 135.056C30.7125 130.031 30.5687 125.003 30.6406 119.975C33.7562 119.894 36.875 120.044 39.9843 119.919C41.2 119.872 40.9062 118.328 40.975 117.503C40.8968 116.737 41.175 115.278 40.0031 115.322C36.8843 115.172 33.7562 115.334 30.6312 115.256C30.6218 113.094 30.6187 110.931 30.6375 108.769Z" fill="#111C23"/>
<path d="M95.5843 48.1843C99.8031 45.1374 105.456 44.153 110.441 45.6686C109.156 46.2718 107.828 46.7999 106.619 47.5499C102.303 50.2436 99.1375 54.878 98.625 59.9843C97.7531 59.778 96.7406 59.7905 96.0687 60.4655C95.0062 61.3905 95.0968 63.2405 96.2468 64.0561C96.9156 64.6124 97.8312 64.5624 98.6312 64.3843C99.0968 68.6561 101.316 72.6436 104.625 75.3717C106.306 76.878 108.391 77.7811 110.419 78.7092C108.994 79.1624 107.5 79.3905 106.006 79.3842C103.937 79.4592 101.869 79.1249 99.9187 78.4436C96.0093 77.0843 92.6812 74.2467 90.6156 70.6749C89.6093 68.8561 88.9218 66.8655 88.5906 64.8155C88.2593 62.2436 88.3781 59.5905 89.1562 57.1061C89.6375 55.5843 90.3187 54.128 91.1812 52.7874C92.3593 51.0061 93.8625 49.4468 95.5843 48.1843Z" fill="#FD5426"/>
<path d="M67.4187 79.4968C68.4312 78.5593 69.3843 77.2062 70.9062 77.1937C71.9906 77.0875 72.9687 77.6968 73.6594 78.4812C72.5125 80.275 70.2 81.2843 69.7437 83.4875C69.4218 85.1781 70.8375 86.3937 71.9344 87.4281C73.3406 88.8343 74.7687 90.2218 76.1468 91.6562C76.7875 92.2562 76.8062 93.35 76.175 93.9687C74.2468 96.1 71.9593 97.9187 70.1843 100.187C69.4843 101.228 69.4937 102.737 70.3906 103.666C71.4625 104.869 72.725 105.9 73.6812 107.209C72.9906 107.994 72.025 108.6 70.9375 108.484C69.4562 108.541 68.5062 107.256 67.5375 106.344C66.6812 105.375 65.6468 104.572 64.8718 103.534C64.1625 102.584 64.2625 101.275 64.6969 100.231C67 97.6656 69.5531 95.3343 71.9531 92.8593C69.55 90.3656 66.9719 88.0343 64.675 85.4437C64.2531 84.3781 64.1656 83.0375 64.9312 82.1031C65.6719 81.1531 66.6156 80.3906 67.4187 79.4968Z" fill="#FD5426"/>
<path d="M87.4125 56.6406C88 56.7719 88.575 56.9438 89.1562 57.1063C88.3781 59.5906 88.2593 62.2438 88.5906 64.8156C83.3593 63.2594 77.7312 63.15 72.4437 64.5031C75.25 61.8375 78.7437 60.0125 82.2843 58.525C83.95 57.7719 85.8156 57.5562 87.4125 56.6406Z" fill="#3692BC"/>
<path d="M110.419 78.7096C111.491 78.3596 112.547 77.9502 113.553 77.4346C114.153 78.8064 114.716 80.1939 115.166 81.6189C115.659 83.1721 116.05 84.7564 116.341 86.3596C116.747 88.6846 116.937 91.044 116.897 93.4033C116.884 94.719 116.797 96.0315 116.634 97.3377C116.366 99.5908 115.881 101.816 115.203 103.978C114.684 105.597 114.066 107.185 113.334 108.719C112.541 110.378 111.622 111.975 110.6 113.506C109.187 115.581 107.566 117.516 105.781 119.285C104.262 120.775 102.609 122.131 100.847 123.328C96.8718 126.056 92.3593 127.963 87.6562 128.991C85.5593 128.225 83.375 127.71 81.3406 126.775C78.1125 125.347 74.9687 123.585 72.3656 121.178C81.3625 123.597 91.4468 121.491 98.5968 115.485C103.662 111.331 107.281 105.444 108.644 99.0346C110.072 92.4439 109.156 85.3533 106.006 79.3846C107.5 79.3908 108.994 79.1627 110.419 78.7096Z" fill="#3692BC"/>
<path d="M120.709 132.609C122.809 130.568 124.837 128.456 126.953 126.428C129.906 129.44 132.919 132.4 135.891 135.396C139.222 138.721 142.55 142.046 145.872 145.378C147.687 147.078 147.8 150.212 146.1 152.031C144.609 153.621 142.991 155.093 141.509 156.693C134.497 149.828 127.634 142.815 120.653 135.921C120.253 135.468 119.697 135.025 119.694 134.371C119.637 133.625 120.253 133.106 120.709 132.609Z" fill="#3692BC"/>
<path d="M72.4438 64.503C77.7313 63.1499 83.3594 63.2592 88.5906 64.8155C88.9219 66.8655 89.6094 68.8561 90.6156 70.6749C86.7594 68.7655 82.3719 67.978 78.0906 68.3218C69.0031 68.8968 60.625 75.0686 57.2313 83.4905C54.65 89.6843 54.7781 96.9405 57.5875 103.034C61.2375 111.209 69.6406 117.04 78.6094 117.419C83.7375 117.747 88.9594 116.369 93.275 113.578C98.2125 110.422 101.963 105.45 103.609 99.8249C105.772 92.6374 104.391 84.478 99.9188 78.4436C101.869 79.1249 103.938 79.4592 106.006 79.3842C109.156 85.353 110.072 92.4436 108.644 99.0342C107.281 105.444 103.663 111.331 98.5969 115.484C91.4469 121.49 81.3625 123.597 72.3656 121.178C68.0156 119.931 63.9156 117.775 60.5406 114.747C55.7719 110.525 52.4375 104.712 51.2313 98.4593C49.7906 91.1874 51.2531 83.378 55.2688 77.1436C59.1531 70.9686 65.4313 66.4436 72.4438 64.503Z" fill="#025F80"/>
<path d="M105.781 119.284C107.566 117.515 109.188 115.581 110.6 113.506C111.256 114.159 111.909 114.815 112.566 115.471C114.087 116.993 115.606 118.518 117.134 120.037C118.047 120.953 118.966 121.865 119.869 122.796C118.091 124.568 116.319 126.35 114.541 128.121C111.678 125.118 108.641 122.29 105.781 119.284Z" fill="#025F80"/>
<path d="M57.2312 83.491C60.625 75.0691 69.0031 68.8973 78.0906 68.3223C78.25 68.366 78.5687 68.4598 78.7281 68.5066C75.3531 70.4723 71.9781 72.6691 69.6219 75.8535C68.7437 76.9723 67.7406 78.0629 67.4187 79.4973C66.6156 80.391 65.6719 81.1535 64.9312 82.1035C64.1656 83.0379 64.2531 84.3785 64.675 85.4441C63.7844 87.8973 63.6219 90.5316 63.5281 93.1191C63.6469 95.516 63.8375 97.966 64.6969 100.232C64.2625 101.275 64.1625 102.585 64.8719 103.535C65.6469 104.572 66.6812 105.375 67.5375 106.344C67.8375 107.779 68.8375 108.872 69.7187 109.982C71.2219 111.916 73.0937 113.522 75.0719 114.954C76.2375 115.797 77.6469 116.307 78.6094 117.419C69.6406 117.041 61.2375 111.21 57.5875 103.035C54.7781 96.941 54.65 89.6848 57.2312 83.491Z" fill="#EAF9FA"/>
<path d="M100.847 123.328C102.609 122.131 104.262 120.775 105.781 119.284C108.641 122.29 111.678 125.119 114.541 128.122C113.062 129.609 111.572 131.087 110.097 132.575C107.009 129.497 103.928 126.412 100.847 123.328Z" fill="#024C67"/>
</g>
<defs>
<clipPath id="clip0_143_11363">
<rect width="160" height="160" fill="white"/>
</clipPath>
</defs>
</svg>
