<svg width="203" height="181" viewBox="0 0 203 181" fill="none" xmlns="http://www.w3.org/2000/svg">
<rect x="10" y="10" width="138" height="138" rx="69" fill="#F1F5F9"/>
<circle cx="8.85005" cy="30.7" r="2.3" fill="#CBD5E1"/>
<circle cx="161.8" cy="49.1" r="2.3" fill="#CBD5E1"/>
<circle cx="3.10005" cy="146.85" r="2.3" fill="#CBD5E1"/>
<g filter="url(#filter0_d_34_6969)">
<rect x="37.5999" y="10" width="82.8" height="138" rx="9.2" fill="white"/>
<rect x="37.5999" y="10" width="82.8" height="138" rx="9.2" stroke="#111C23" stroke-width="4.6"/>
</g>
<line x1="52.2133" y1="50.25" x2="100.85" y2="98.8868" stroke="#CBD5E1" stroke-width="1.15" stroke-linecap="round"/>
<line x1="66.0131" y1="107.75" x2="74.3999" y2="116.137" stroke="#CBD5E1" stroke-width="1.15" stroke-linecap="round"/>
<g filter="url(#filter1_d_34_6969)">
<rect x="69.9146" y="77.85" width="99.935" height="50.6" rx="10.12" fill="white"/>
</g>
<circle cx="91.4198" cy="103.15" r="12.65" fill="#22C55E"/>
<path d="M86.2544 103.15L89.944 106.839L97.3231 99.4602" stroke="white" stroke-width="1.9241" stroke-linecap="round" stroke-linejoin="round"/>
<rect x="111.659" y="87.97" width="25.9838" height="2.64" rx="0.962051" fill="#F1F5F9"/>
<rect x="111.659" y="93.2506" width="48.07" height="2.64" rx="0.962051" fill="#F1F5F9"/>
<rect x="111.659" y="99.8496" width="48.07" height="18.48" rx="1.9241" fill="#F1F5F9"/>
<path d="M120.07 113.049L120.184 110.024L117.538 111.647L116.856 110.492L119.644 109.089L116.856 107.687L117.538 106.532L120.184 108.154L120.07 105.129H121.436L121.322 108.154L123.968 106.532L124.651 107.687L121.863 109.089L124.651 110.492L123.968 111.647L121.322 110.024L121.436 113.049H120.07Z" fill="#111C23"/>
<path d="M130.464 113.049L130.578 110.024L127.932 111.647L127.25 110.492L130.038 109.089L127.25 107.687L127.932 106.532L130.578 108.154L130.464 105.129H131.83L131.716 108.154L134.362 106.532L135.045 107.687L132.257 109.089L135.045 110.492L134.362 111.647L131.716 110.024L131.83 113.049H130.464Z" fill="#111C23"/>
<path d="M140.858 113.049L140.972 110.024L138.326 111.647L137.643 110.492L140.431 109.089L137.643 107.687L138.326 106.532L140.972 108.154L140.858 105.129H142.224L142.11 108.154L144.756 106.532L145.438 107.687L142.65 109.089L145.438 110.492L144.756 111.647L142.11 110.024L142.224 113.049H140.858Z" fill="#111C23"/>
<path d="M151.251 113.049L151.364 110.024L148.719 111.647L148.036 110.492L150.824 109.089L148.036 107.687L148.719 106.532L151.364 108.154L151.251 105.129H152.616L152.502 108.154L155.148 106.532L155.831 107.687L153.043 109.089L155.831 110.492L155.148 111.647L152.502 110.024L152.616 113.049H151.251Z" fill="#111C23"/>
<line x1="78.6633" y1="39.9" x2="91.6501" y2="52.8868" stroke="#CBD5E1" stroke-width="1.15" stroke-linecap="round"/>
<defs>
<filter id="filter0_d_34_6969" x="26.0998" y="0.799996" width="124.2" height="179.4" filterUnits="userSpaceOnUse" color-interpolation-filters="sRGB">
<feFlood flood-opacity="0" result="BackgroundImageFix"/>
<feColorMatrix in="SourceAlpha" type="matrix" values="0 0 0 0 0 0 0 0 0 0 0 0 0 0 0 0 0 0 127 0" result="hardAlpha"/>
<feOffset dx="9.2" dy="11.5"/>
<feGaussianBlur stdDeviation="9.2"/>
<feComposite in2="hardAlpha" operator="out"/>
<feColorMatrix type="matrix" values="0 0 0 0 0.0588235 0 0 0 0 0.0901962 0 0 0 0 0.164706 0 0 0 0.08 0"/>
<feBlend mode="normal" in2="BackgroundImageFix" result="effect1_dropShadow_34_6969"/>
<feBlend mode="normal" in="SourceGraphic" in2="effect1_dropShadow_34_6969" result="shape"/>
</filter>
<filter id="filter1_d_34_6969" x="42.0846" y="52.55" width="160.655" height="111.32" filterUnits="userSpaceOnUse" color-interpolation-filters="sRGB">
<feFlood flood-opacity="0" result="BackgroundImageFix"/>
<feColorMatrix in="SourceAlpha" type="matrix" values="0 0 0 0 0 0 0 0 0 0 0 0 0 0 0 0 0 0 127 0" result="hardAlpha"/>
<feOffset dx="2.53" dy="5.06"/>
<feGaussianBlur stdDeviation="15.18"/>
<feComposite in2="hardAlpha" operator="out"/>
<feColorMatrix type="matrix" values="0 0 0 0 0.0588235 0 0 0 0 0.0901962 0 0 0 0 0.164706 0 0 0 0.08 0"/>
<feBlend mode="normal" in2="BackgroundImageFix" result="effect1_dropShadow_34_6969"/>
<feBlend mode="normal" in="SourceGraphic" in2="effect1_dropShadow_34_6969" result="shape"/>
</filter>
</defs>
</svg>
