<svg width="20" height="20" viewBox="0 0 20 20" fill="none" xmlns="http://www.w3.org/2000/svg">
<g opacity="0.6">
<path d="M15 8.95832C14.6583 8.95832 14.375 8.67499 14.375 8.33332V6.66666C14.375 4.04166 13.6333 2.29166 10 2.29166C6.36667 2.29166 5.625 4.04166 5.625 6.66666V8.33332C5.625 8.67499 5.34167 8.95832 5 8.95832C4.65833 8.95832 4.375 8.67499 4.375 8.33332V6.66666C4.375 4.24999 4.95833 1.04166 10 1.04166C15.0417 1.04166 15.625 4.24999 15.625 6.66666V8.33332C15.625 8.67499 15.3417 8.95832 15 8.95832Z" fill="#111C23"/>
<path d="M10 16.0417C8.50835 16.0417 7.29169 14.825 7.29169 13.3333C7.29169 11.8417 8.50835 10.625 10 10.625C11.4917 10.625 12.7084 11.8417 12.7084 13.3333C12.7084 14.825 11.4917 16.0417 10 16.0417ZM10 11.875C9.20002 11.875 8.54169 12.5333 8.54169 13.3333C8.54169 14.1333 9.20002 14.7917 10 14.7917C10.8 14.7917 11.4584 14.1333 11.4584 13.3333C11.4584 12.5333 10.8 11.875 10 11.875Z" fill="#111C23"/>
<path d="M14.1667 18.9583H5.83335C2.15835 18.9583 1.04169 17.8417 1.04169 14.1667V12.5C1.04169 8.82501 2.15835 7.70834 5.83335 7.70834H14.1667C17.8417 7.70834 18.9584 8.82501 18.9584 12.5V14.1667C18.9584 17.8417 17.8417 18.9583 14.1667 18.9583ZM5.83335 8.95834C2.85002 8.95834 2.29169 9.52501 2.29169 12.5V14.1667C2.29169 17.1417 2.85002 17.7083 5.83335 17.7083H14.1667C17.15 17.7083 17.7084 17.1417 17.7084 14.1667V12.5C17.7084 9.52501 17.15 8.95834 14.1667 8.95834H5.83335Z" fill="#111C23"/>
</g>
</svg>
