<svg width="203" height="181" viewBox="0 0 203 181" fill="none" xmlns="http://www.w3.org/2000/svg">
<rect x="10" y="10" width="138" height="138" rx="69" fill="#1B2631"/>
<circle cx="8.84996" cy="30.7" r="2.3" fill="#324151"/>
<circle cx="161.8" cy="49.1" r="2.3" fill="#324151"/>
<circle cx="3.10011" cy="146.85" r="2.3" fill="#324151"/>
<g filter="url(#filter0_d_162_24308)">
<rect x="37.5999" y="10" width="82.8" height="138" rx="9.2" fill="#111A20"/>
<rect x="37.5999" y="10" width="82.8" height="138" rx="9.2" stroke="#162026" stroke-width="4.6"/>
</g>
<line x1="52.2133" y1="50.25" x2="100.85" y2="98.8868" stroke="#CBD5E1" stroke-width="1.15" stroke-linecap="round"/>
<line x1="66.0132" y1="107.75" x2="74.4" y2="116.137" stroke="#CBD5E1" stroke-width="1.15" stroke-linecap="round"/>
<g filter="url(#filter1_d_162_24308)">
<rect x="69.9145" y="77.85" width="99.935" height="50.6" rx="10.12" fill="#1A2531"/>
</g>
<circle cx="91.4198" cy="103.15" r="12.65" fill="#22C55E"/>
<path d="M86.2541 103.15L89.9436 106.839L97.3228 99.4602" stroke="white" stroke-width="1.9241" stroke-linecap="round" stroke-linejoin="round"/>
<rect x="111.659" y="87.97" width="25.9838" height="2.64" rx="0.962051" fill="#111A20"/>
<rect x="111.659" y="93.2505" width="48.07" height="2.64" rx="0.962051" fill="#111A20"/>
<rect x="111.659" y="99.8496" width="48.07" height="18.48" rx="1.9241" fill="#111A20"/>
<path d="M120.07 113.049L120.184 110.024L117.538 111.647L116.855 110.492L119.643 109.089L116.855 107.687L117.538 106.532L120.184 108.154L120.07 105.129H121.436L121.322 108.154L123.968 106.532L124.65 107.687L121.862 109.089L124.65 110.492L123.968 111.647L121.322 110.024L121.436 113.049H120.07Z" fill="white"/>
<path d="M130.464 113.049L130.578 110.024L127.932 111.647L127.249 110.492L130.037 109.089L127.249 107.687L127.932 106.532L130.578 108.154L130.464 105.129H131.829L131.716 108.154L134.361 106.532L135.044 107.687L132.256 109.089L135.044 110.492L134.361 111.647L131.716 110.024L131.829 113.049H130.464Z" fill="white"/>
<path d="M140.858 113.049L140.971 110.024L138.326 111.647L137.643 110.492L140.431 109.089L137.643 107.687L138.326 106.532L140.971 108.154L140.858 105.129H142.223L142.109 108.154L144.755 106.532L145.438 107.687L142.65 109.089L145.438 110.492L144.755 111.647L142.109 110.024L142.223 113.049H140.858Z" fill="white"/>
<path d="M151.25 113.049L151.364 110.024L148.718 111.647L148.035 110.492L150.824 109.089L148.035 107.687L148.718 106.532L151.364 108.154L151.25 105.129H152.616L152.502 108.154L155.148 106.532L155.831 107.687L153.043 109.089L155.831 110.492L155.148 111.647L152.502 110.024L152.616 113.049H151.25Z" fill="white"/>
<line x1="78.6631" y1="39.9" x2="91.65" y2="52.8869" stroke="#CBD5E1" stroke-width="1.15" stroke-linecap="round"/>
<defs>
<filter id="filter0_d_162_24308" x="26.0999" y="0.799951" width="124.2" height="179.4" filterUnits="userSpaceOnUse" color-interpolation-filters="sRGB">
<feFlood flood-opacity="0" result="BackgroundImageFix"/>
<feColorMatrix in="SourceAlpha" type="matrix" values="0 0 0 0 0 0 0 0 0 0 0 0 0 0 0 0 0 0 127 0" result="hardAlpha"/>
<feOffset dx="9.2" dy="11.5"/>
<feGaussianBlur stdDeviation="9.2"/>
<feComposite in2="hardAlpha" operator="out"/>
<feColorMatrix type="matrix" values="0 0 0 0 0.0588235 0 0 0 0 0.0901962 0 0 0 0 0.164706 0 0 0 0.08 0"/>
<feBlend mode="normal" in2="BackgroundImageFix" result="effect1_dropShadow_162_24308"/>
<feBlend mode="normal" in="SourceGraphic" in2="effect1_dropShadow_162_24308" result="shape"/>
</filter>
<filter id="filter1_d_162_24308" x="42.0845" y="52.55" width="160.655" height="111.32" filterUnits="userSpaceOnUse" color-interpolation-filters="sRGB">
<feFlood flood-opacity="0" result="BackgroundImageFix"/>
<feColorMatrix in="SourceAlpha" type="matrix" values="0 0 0 0 0 0 0 0 0 0 0 0 0 0 0 0 0 0 127 0" result="hardAlpha"/>
<feOffset dx="2.53" dy="5.06"/>
<feGaussianBlur stdDeviation="15.18"/>
<feComposite in2="hardAlpha" operator="out"/>
<feColorMatrix type="matrix" values="0 0 0 0 0.0588235 0 0 0 0 0.0901962 0 0 0 0 0.164706 0 0 0 0.08 0"/>
<feBlend mode="normal" in2="BackgroundImageFix" result="effect1_dropShadow_162_24308"/>
<feBlend mode="normal" in="SourceGraphic" in2="effect1_dropShadow_162_24308" result="shape"/>
</filter>
</defs>
</svg>
