<svg width="44" height="44" viewBox="0 0 44 44" fill="none" xmlns="http://www.w3.org/2000/svg">
    <rect width="44" height="44" rx="12" fill="#394247"/>
    <path d="M27.54 18.81C29.1747 18.81 30.5 17.4848 30.5 15.85C30.5 14.2153 29.1747 12.89 27.54 12.89C25.9052 12.89 24.58 14.2153 24.58 15.85C24.58 17.4848 25.9052 18.81 27.54 18.81Z" fill="#FFFFFF"/>
    <path d="M16.46 18.81C18.0948 18.81 19.42 17.4848 19.42 15.85C19.42 14.2153 18.0948 12.89 16.46 12.89C14.8252 12.89 13.5 14.2153 13.5 15.85C13.5 17.4848 14.8252 18.81 16.46 18.81Z" fill="#FFFFFF"/>
    <path d="M27.54 31.1099C29.1747 31.1099 30.5 29.7847 30.5 28.1499C30.5 26.5152 29.1747 25.1899 27.54 25.1899C25.9052 25.1899 24.58 26.5152 24.58 28.1499C24.58 29.7847 25.9052 31.1099 27.54 31.1099Z" fill="#FFFFFF"/>
    <path d="M16.46 31.1099C18.0948 31.1099 19.42 29.7847 19.42 28.1499C19.42 26.5152 18.0948 25.1899 16.46 25.1899C14.8252 25.1899 13.5 26.5152 13.5 28.1499C13.5 29.7847 14.8252 31.1099 16.46 31.1099Z" fill="#FFFFFF"/>
</svg>