<svg width="16" height="16" viewBox="0 0 16 16" fill="none" xmlns="http://www.w3.org/2000/svg">
<path d="M12.4667 9.64001C12.2267 9.88001 12.0934 10.34 12.1734 10.6667L12.6334 12.6733C12.8267 13.5067 12.7067 14.1333 12.2934 14.4333C12.1267 14.5533 11.9267 14.6133 11.6934 14.6133C11.3534 14.6133 10.9534 14.4867 10.5134 14.2267L8.56003 13.0667C8.25337 12.8867 7.7467 12.8867 7.44003 13.0667L5.4867 14.2267C4.7467 14.66 4.11337 14.7333 3.7067 14.4333C3.55337 14.32 3.44003 14.1667 3.3667 13.9667L11.4734 5.86001C11.78 5.55335 12.2134 5.41335 12.6334 5.48668L13.3067 5.60001C14.0134 5.72001 14.4867 6.04001 14.64 6.50668C14.7867 6.97335 14.5867 7.51335 14.08 8.02001L12.4667 9.64001Z" fill="url(#paint0_linear_164_23670)"/>
<path d="M3.82617 10.6666C3.8995 10.3399 3.76617 9.87325 3.53283 9.63992L1.91283 8.01992C1.40617 7.51325 1.20617 6.97325 1.35283 6.50659C1.50617 6.03992 1.9795 5.71992 2.68617 5.59992L4.76617 5.25325C5.06617 5.19992 5.43283 4.93325 5.57283 4.65992L6.7195 2.35992C7.05283 1.69992 7.50617 1.33325 7.9995 1.33325C8.49283 1.33325 8.94617 1.69992 9.2795 2.35992L10.4262 4.65992C10.5128 4.83325 10.6928 4.99992 10.8862 5.11325L3.70617 12.2933C3.61283 12.3866 3.45283 12.2999 3.4795 12.1666L3.82617 10.6666Z" fill="url(#paint1_linear_164_23670)"/>
<defs>
<linearGradient id="paint0_linear_164_23670" x1="9.02683" y1="5.46753" x2="9.02683" y2="14.615" gradientUnits="userSpaceOnUse">
<stop stop-color="#FFC868"/>
<stop offset="1" stop-color="#FFB034"/>
</linearGradient>
<linearGradient id="paint1_linear_164_23670" x1="6.09604" y1="1.33325" x2="6.09604" y2="12.3323" gradientUnits="userSpaceOnUse">
<stop stop-color="#FFC868"/>
<stop offset="1" stop-color="#FFB034"/>
</linearGradient>
</defs>
</svg>
