<svg width="20" height="20" viewBox="0 0 20 20" fill="none" xmlns="http://www.w3.org/2000/svg">
<path d="M11.1417 16.7083L12.8167 12.8167L13.1833 11.95C13.25 11.8167 13.425 11.7 13.575 11.7L16.125 11.7C16.925 11.7 17.875 11.1083 18.2417 10.3917C18.3667 10.1417 18.3667 9.84168 18.2417 9.59168C17.875 8.88334 16.9167 8.29167 16.1167 8.29167L13.5667 8.29167C13.4167 8.29167 13.2417 8.17501 13.175 8.04167L11.1333 3.29167C10.9167 2.76667 10.2583 2.34167 9.69167 2.34167L8.59167 2.34167C7.88334 2.34167 7.53334 2.87501 7.81667 3.53334L9.61667 7.70834C9.75833 8.03334 9.58333 8.30001 9.225 8.30001L8.3 8.30001L6.8 8.30001C6.60834 8.30001 6.33334 8.19167 6.2 8.05834L4.25834 6.12501C4.05834 5.92501 3.66667 5.83334 3.38333 5.92501L2.25 6.30001C1.75833 6.45001 1.525 7.00834 1.75833 7.46667L3.425 9.45001C3.68334 9.75001 3.68334 10.2417 3.425 10.5417L1.75833 12.525C1.53334 12.9833 1.75833 13.5417 2.25 13.7083L3.38333 14.0833C3.65833 14.175 4.05833 14.0833 4.25834 13.8833L6.2 11.95C6.33334 11.8083 6.60834 11.7 6.8 11.7L9.225 11.7C9.58333 11.7 9.75 11.9583 9.61667 12.2917L7.81667 16.4667C7.53334 17.125 7.88333 17.6583 8.59167 17.6583L9.69167 17.6583C10.2583 17.6583 10.9167 17.2333 11.1417 16.7083Z" fill="#008EFC"/>
</svg>
